<svg xmlns="http://www.w3.org/2000/svg" width="224.798" height="51.215" viewBox="0 0 224.798 51.215">
  <g id="Group_19" data-name="Group 19" transform="translate(-847.235 -762.423)">
    <g id="Group_13" data-name="Group 13" transform="translate(847.235 762.423)">
      <path id="Path_24" data-name="Path 24" d="M172,179.72h0a25.608,25.608,0,0,1-25.608-25.607h0A25.608,25.608,0,0,1,172,128.505h0a25.607,25.607,0,0,1,25.607,25.608h0A25.607,25.607,0,0,1,172,179.72Z" transform="translate(-146.391 -128.505)"/>
      <path id="Path_25" data-name="Path 25" d="M163.355,166.99h6.233V151.38h4.35l.463-5.226h-4.813v-2.976c0-1.233.248-1.72,1.44-1.72H174.4v-5.424h-4.317c-4.638,0-6.729,2.043-6.729,5.953v4.167h-3.243v5.292h3.243Z" transform="translate(-141.649 -125.903)" fill="#fff"/>
    </g>
    <g id="Group_15" data-name="Group 15" transform="translate(934.343 762.423)">
      <path id="Path_26" data-name="Path 26" d="M227.733,179.72h0a25.607,25.607,0,0,1-25.607-25.607h0a25.607,25.607,0,0,1,25.607-25.608h0a25.608,25.608,0,0,1,25.608,25.608h0A25.608,25.608,0,0,1,227.733,179.72Z" transform="translate(-202.126 -128.505)"/>
      <g id="Group_14" data-name="Group 14" transform="translate(11.567 11.567)">
        <path id="Path_27" data-name="Path 27" d="M224.762,139.631c3.749,0,4.193.015,5.674.082a7.745,7.745,0,0,1,2.606.484,4.641,4.641,0,0,1,2.664,2.664,7.735,7.735,0,0,1,.484,2.606c.067,1.482.082,1.924.082,5.674s-.015,4.193-.082,5.673a7.745,7.745,0,0,1-.484,2.608,4.64,4.64,0,0,1-2.664,2.664,7.753,7.753,0,0,1-2.606.483c-1.482.069-1.924.082-5.674.082s-4.193-.013-5.673-.082a7.763,7.763,0,0,1-2.608-.483,4.65,4.65,0,0,1-2.664-2.664,7.754,7.754,0,0,1-.483-2.608c-.067-1.48-.082-1.924-.082-5.673s.015-4.193.082-5.674a7.744,7.744,0,0,1,.483-2.606,4.651,4.651,0,0,1,2.664-2.664,7.755,7.755,0,0,1,2.608-.484c1.48-.067,1.924-.082,5.673-.082m0-2.53c-3.813,0-4.291.016-5.789.085a10.358,10.358,0,0,0-3.408.653,7.17,7.17,0,0,0-4.105,4.107,10.281,10.281,0,0,0-.653,3.408c-.069,1.5-.085,1.975-.085,5.789s.016,4.291.085,5.789a10.281,10.281,0,0,0,.653,3.408,7.173,7.173,0,0,0,4.105,4.105,10.32,10.32,0,0,0,3.408.654c1.5.067,1.975.083,5.789.083s4.291-.016,5.789-.083a10.305,10.305,0,0,0,3.408-.654,7.18,7.18,0,0,0,4.107-4.105,10.317,10.317,0,0,0,.653-3.408c.069-1.5.085-1.975.085-5.789s-.016-4.291-.085-5.789a10.317,10.317,0,0,0-.653-3.408,7.177,7.177,0,0,0-4.107-4.107,10.343,10.343,0,0,0-3.408-.653c-1.5-.069-1.975-.085-5.789-.085" transform="translate(-210.722 -137.101)" fill="#fff"/>
        <path id="Path_28" data-name="Path 28" d="M223.008,142.178a7.21,7.21,0,1,0,7.211,7.21,7.21,7.21,0,0,0-7.211-7.21m0,11.89a4.68,4.68,0,1,1,4.68-4.68,4.68,4.68,0,0,1-4.68,4.68" transform="translate(-208.968 -135.346)" fill="#fff"/>
        <path id="Path_29" data-name="Path 29" d="M228.843,142.4a1.685,1.685,0,1,1-1.683-1.685,1.684,1.684,0,0,1,1.683,1.685" transform="translate(-205.624 -135.852)" fill="#fff"/>
      </g>
    </g>
    <g id="Group_18" data-name="Group 18" transform="translate(1020.818 762.423)">
      <path id="Path_30" data-name="Path 30" d="M172,233.645h0a25.608,25.608,0,0,1-25.608-25.607h0A25.609,25.609,0,0,1,172,182.43h0a25.608,25.608,0,0,1,25.607,25.608h0A25.607,25.607,0,0,1,172,233.645Z" transform="translate(-146.391 -182.43)"/>
      <g id="Group_17" data-name="Group 17" transform="translate(11.171 16.418)">
        <path id="Path_31" data-name="Path 31" d="M165.307,212.318a4.934,4.934,0,0,0,3.3-2.31,5.24,5.24,0,0,0,.8-2.859,4.75,4.75,0,0,0-.7-2.628,3.994,3.994,0,0,0-2.071-1.581A4.287,4.287,0,0,0,168,201.916a3.99,3.99,0,0,0,.83-2.64,4.554,4.554,0,0,0-.823-2.736q-1.366-1.861-4.646-1.909h-8.667v17.93h8.08A12.475,12.475,0,0,0,165.307,212.318Zm-7.037-14.573h3.9a6.742,6.742,0,0,1,2.119.28,1.6,1.6,0,0,1,.963,1.654,1.693,1.693,0,0,1-.729,1.576,3.6,3.6,0,0,1-1.9.444H158.27Zm0,11.7v-4.781h4.412a4.528,4.528,0,0,1,1.794.3,1.925,1.925,0,0,1,1.141,1.922,2.259,2.259,0,0,1-1.179,2.239,4.215,4.215,0,0,1-1.814.316Z" transform="translate(-154.693 -194.631)" fill="#fff"/>
        <g id="Group_16" data-name="Group 16" transform="translate(15.721 1.03)">
          <path id="Path_32" data-name="Path 32" d="M168.4,210.271a7.223,7.223,0,0,0,4.671,1.632,6.438,6.438,0,0,0,4.988-1.935,4.337,4.337,0,0,0,1.286-2.4H175.8a2.9,2.9,0,0,1-.715.912,2.935,2.935,0,0,1-1.924.608,3.517,3.517,0,0,1-1.911-.5,3.18,3.18,0,0,1-1.387-2.8h9.656a17,17,0,0,0-.113-2.632,6.514,6.514,0,0,0-1.056-2.741,5.381,5.381,0,0,0-2.292-1.961,7.541,7.541,0,0,0-3.119-.622,6.393,6.393,0,0,0-4.741,1.839,7.175,7.175,0,0,0-1.827,5.283Q166.376,208.64,168.4,210.271Zm2.477-8.815a2.75,2.75,0,0,1,2.068-.756,3.04,3.04,0,0,1,2.057.715,2.892,2.892,0,0,1,.924,2.1h-5.974A3.6,3.6,0,0,1,170.877,201.456Z" transform="translate(-166.376 -194.552)" fill="#fff"/>
          <rect id="Rectangle_1472" data-name="Rectangle 1472" width="7.793" height="1.81" transform="translate(2.447)" fill="#fff"/>
        </g>
      </g>
    </g>
  </g>
</svg>
