<svg id="Group_15" data-name="Group 15" xmlns="http://www.w3.org/2000/svg" width="51.215" height="51.215" viewBox="0 0 51.215 51.215">
  <path id="Path_26" data-name="Path 26" d="M227.733,179.72h0a25.607,25.607,0,0,1-25.607-25.607h0a25.607,25.607,0,0,1,25.607-25.608h0a25.608,25.608,0,0,1,25.608,25.608h0A25.608,25.608,0,0,1,227.733,179.72Z" transform="translate(-202.126 -128.505)"/>
  <g id="Group_14" data-name="Group 14" transform="translate(11.567 11.567)">
    <path id="Path_27" data-name="Path 27" d="M224.762,139.631c3.749,0,4.193.015,5.674.082a7.745,7.745,0,0,1,2.606.484,4.641,4.641,0,0,1,2.664,2.664,7.735,7.735,0,0,1,.484,2.606c.067,1.482.082,1.924.082,5.674s-.015,4.193-.082,5.673a7.745,7.745,0,0,1-.484,2.608,4.64,4.64,0,0,1-2.664,2.664,7.753,7.753,0,0,1-2.606.483c-1.482.069-1.924.082-5.674.082s-4.193-.013-5.673-.082a7.763,7.763,0,0,1-2.608-.483,4.65,4.65,0,0,1-2.664-2.664,7.754,7.754,0,0,1-.483-2.608c-.067-1.48-.082-1.924-.082-5.673s.015-4.193.082-5.674a7.744,7.744,0,0,1,.483-2.606,4.651,4.651,0,0,1,2.664-2.664,7.755,7.755,0,0,1,2.608-.484c1.48-.067,1.924-.082,5.673-.082m0-2.53c-3.813,0-4.291.016-5.789.085a10.358,10.358,0,0,0-3.408.653,7.17,7.17,0,0,0-4.105,4.107,10.281,10.281,0,0,0-.653,3.408c-.069,1.5-.085,1.975-.085,5.789s.016,4.291.085,5.789a10.281,10.281,0,0,0,.653,3.408,7.173,7.173,0,0,0,4.105,4.105,10.32,10.32,0,0,0,3.408.654c1.5.067,1.975.083,5.789.083s4.291-.016,5.789-.083a10.305,10.305,0,0,0,3.408-.654,7.18,7.18,0,0,0,4.107-4.105,10.317,10.317,0,0,0,.653-3.408c.069-1.5.085-1.975.085-5.789s-.016-4.291-.085-5.789a10.317,10.317,0,0,0-.653-3.408,7.177,7.177,0,0,0-4.107-4.107,10.343,10.343,0,0,0-3.408-.653c-1.5-.069-1.975-.085-5.789-.085" transform="translate(-210.722 -137.101)" fill="#fff"/>
    <path id="Path_28" data-name="Path 28" d="M223.008,142.178a7.21,7.21,0,1,0,7.211,7.21,7.21,7.21,0,0,0-7.211-7.21m0,11.89a4.68,4.68,0,1,1,4.68-4.68,4.68,4.68,0,0,1-4.68,4.68" transform="translate(-208.968 -135.346)" fill="#fff"/>
    <path id="Path_29" data-name="Path 29" d="M228.843,142.4a1.685,1.685,0,1,1-1.683-1.685,1.684,1.684,0,0,1,1.683,1.685" transform="translate(-205.624 -135.852)" fill="#fff"/>
  </g>
</svg>
