<svg xmlns="http://www.w3.org/2000/svg" xmlns:xlink="http://www.w3.org/1999/xlink" width="888" height="813" viewBox="0 0 888 813">
  <defs>
    <filter id="Rectangle_1477" x="0" y="0" width="888" height="813" filterUnits="userSpaceOnUse">
      <feOffset dx="23" dy="20" input="SourceAlpha"/>
      <feGaussianBlur stdDeviation="9.5" result="blur"/>
      <feFlood flood-color="aqua"/>
      <feComposite operator="in" in2="blur"/>
      <feComposite in="SourceGraphic"/>
    </filter>
  </defs>
  <g id="Group_883" data-name="Group 883" transform="translate(-968.5 -1543.5)">
    <g transform="matrix(1, 0, 0, 1, 968.5, 1543.5)" filter="url(#Rectangle_1477)">
      <rect id="Rectangle_1477-2" data-name="Rectangle 1477" width="831" height="756" transform="translate(5.5 8.5)" fill="#fff"/>
    </g>
    <path id="Path_695" data-name="Path 695" d="M40.257,60.871a13.84,13.84,0,0,1-2.024,7.313,14.271,14.271,0,0,1-5.964,5.325A21.013,21.013,0,0,1,22.72,75.5q-8.449,0-13.916-4.118a14.921,14.921,0,0,1-5.964-11.5H15.762a6.82,6.82,0,0,0,2.024,4.473,6.225,6.225,0,0,0,4.438,1.633,5.15,5.15,0,0,0,3.692-1.278A4.474,4.474,0,0,0,27.264,61.3a4.4,4.4,0,0,0-1.242-3.2,9.742,9.742,0,0,0-3.089-2.094q-1.846-.817-5.112-1.952a62.763,62.763,0,0,1-7.774-3.16,14.319,14.319,0,0,1-5.183-4.544A13.15,13.15,0,0,1,2.7,38.506,13.21,13.21,0,0,1,4.97,30.767a14.442,14.442,0,0,1,6.284-5.006,22.918,22.918,0,0,1,9.195-1.74q8.378,0,13.313,3.976a15.171,15.171,0,0,1,5.573,10.934H26.2a6.736,6.736,0,0,0-1.81-3.941,5.325,5.325,0,0,0-3.941-1.456A5.077,5.077,0,0,0,17,34.672a4.172,4.172,0,0,0-1.314,3.337,4.238,4.238,0,0,0,1.172,3.018,8.928,8.928,0,0,0,2.947,2.023q1.775.781,5.112,1.988A56.189,56.189,0,0,1,32.8,48.269a15.076,15.076,0,0,1,5.254,4.65A13.286,13.286,0,0,1,40.257,60.871Zm30.459-11.5L90.951,75h-14.7L59.214,52.493V75H47.073V24.8H59.214V46.884L76.4,24.8H90.951ZM108.275,24.8V75H96.134V24.8Zm20.59,40.9h16.188V75H116.724V24.8h12.141Zm34.009,0h16.188V75H150.733V24.8h12.141Zm57.936-4.828a13.84,13.84,0,0,1-2.023,7.313,14.271,14.271,0,0,1-5.964,5.325,21.013,21.013,0,0,1-9.549,1.988q-8.449,0-13.916-4.118a14.921,14.921,0,0,1-5.964-11.5h12.922a6.82,6.82,0,0,0,2.024,4.473,6.225,6.225,0,0,0,4.438,1.633,5.15,5.15,0,0,0,3.692-1.278,4.474,4.474,0,0,0,1.349-3.408,4.4,4.4,0,0,0-1.243-3.2,9.742,9.742,0,0,0-3.089-2.094q-1.846-.817-5.112-1.952A62.762,62.762,0,0,1,190.6,50.9a14.319,14.319,0,0,1-5.183-4.544,13.15,13.15,0,0,1-2.165-7.845,13.21,13.21,0,0,1,2.272-7.739,14.442,14.442,0,0,1,6.283-5.006A22.918,22.918,0,0,1,201,24.022q8.378,0,13.313,3.976a15.172,15.172,0,0,1,5.574,10.934H206.752a6.736,6.736,0,0,0-1.811-3.941A5.325,5.325,0,0,0,201,33.536a5.077,5.077,0,0,0-3.443,1.136,4.172,4.172,0,0,0-1.314,3.337,4.238,4.238,0,0,0,1.172,3.018,8.928,8.928,0,0,0,2.947,2.023q1.775.781,5.112,1.988a56.19,56.19,0,0,1,7.881,3.231,15.076,15.076,0,0,1,5.254,4.65A13.286,13.286,0,0,1,220.81,60.871Z" transform="translate(1029 1571)"/>
    <path id="Path_696" data-name="Path 696" d="M16.092,38,9.468,27.632H5.9V38H2.628V12.62H10.98q4.32,0,6.48,2.07a7.252,7.252,0,0,1,2.16,5.49,7.1,7.1,0,0,1-1.728,4.986,8.067,8.067,0,0,1-5,2.358L19.8,38ZM5.9,25.256h4.788q5.58,0,5.58-4.9t-5.58-4.9H5.9Zm29.808-7.344a7.379,7.379,0,0,1,5.58,2.214q2.124,2.214,2.124,6.39V38H40.14V26.8a6.314,6.314,0,0,0-1.512-4.536,5.405,5.405,0,0,0-4.1-1.584A5.611,5.611,0,0,0,30.2,22.43a7.232,7.232,0,0,0-1.62,5.094V38H25.308V11.36h3.276V22.916a6.733,6.733,0,0,1,2.682-3.708A7.775,7.775,0,0,1,35.712,17.912Zm13.86-5.472a1.881,1.881,0,0,1,.612-1.458,2.631,2.631,0,0,1,3.24,0,1.881,1.881,0,0,1,.612,1.458,1.881,1.881,0,0,1-.612,1.458,2.631,2.631,0,0,1-3.24,0A1.881,1.881,0,0,1,49.572,12.44Zm3.852,5.8V38H50.148V18.236Zm17.352-.324a7.379,7.379,0,0,1,5.58,2.214q2.124,2.214,2.124,6.39V38H75.2V26.8a6.314,6.314,0,0,0-1.512-4.536,5.405,5.405,0,0,0-4.1-1.584,5.611,5.611,0,0,0-4.32,1.746,7.232,7.232,0,0,0-1.62,5.094V38H60.372V18.236h3.276v4.68a6.733,6.733,0,0,1,2.682-3.708A7.775,7.775,0,0,1,70.776,17.912Zm23.4.072a10.485,10.485,0,0,1,5.094,1.224,8.759,8.759,0,0,1,3.528,3.528,10.956,10.956,0,0,1,1.278,5.4,10.853,10.853,0,0,1-1.278,5.382,8.789,8.789,0,0,1-3.528,3.51,11.212,11.212,0,0,1-10.188,0,8.907,8.907,0,0,1-3.546-3.51,10.732,10.732,0,0,1-1.3-5.382,10.833,10.833,0,0,1,1.3-5.4,8.876,8.876,0,0,1,3.546-3.528A10.485,10.485,0,0,1,94.176,17.984Zm0,2.88a6.848,6.848,0,0,0-3.258.792,5.955,5.955,0,0,0-2.412,2.43,8.185,8.185,0,0,0-.918,4.05,8.1,8.1,0,0,0,.918,4.014,5.955,5.955,0,0,0,2.412,2.43,7.1,7.1,0,0,0,6.516,0,5.954,5.954,0,0,0,2.412-2.43,8.1,8.1,0,0,0,.918-4.014,8.185,8.185,0,0,0-.918-4.05,5.954,5.954,0,0,0-2.412-2.43A6.848,6.848,0,0,0,94.176,20.864Zm24.624-2.88A9.618,9.618,0,0,1,125.064,20a8.54,8.54,0,0,1,3.06,5.4h-3.456a5.053,5.053,0,0,0-1.962-3.33,6.936,6.936,0,0,0-7.128-.414,5.76,5.76,0,0,0-2.286,2.43,8.605,8.605,0,0,0-.864,4.05,8.605,8.605,0,0,0,.864,4.05,5.76,5.76,0,0,0,2.286,2.43,6.889,6.889,0,0,0,7.128-.432,5.121,5.121,0,0,0,1.962-3.348h3.456a8.491,8.491,0,0,1-3.06,5.418,9.676,9.676,0,0,1-6.264,2,10.177,10.177,0,0,1-5.04-1.224,8.65,8.65,0,0,1-3.438-3.51,11.107,11.107,0,0,1-1.242-5.382,11.213,11.213,0,0,1,1.242-5.4,8.622,8.622,0,0,1,3.438-3.528A10.177,10.177,0,0,1,118.8,17.984Zm33.48,9.036a9.756,9.756,0,0,1-.144,1.8h-15.8a6.927,6.927,0,0,0,1.926,5.076,6.285,6.285,0,0,0,4.446,1.692,6.426,6.426,0,0,0,3.978-1.206,4.986,4.986,0,0,0,1.962-3.222h3.492a8.252,8.252,0,0,1-4.824,6.192,10.671,10.671,0,0,1-4.464.9,10.177,10.177,0,0,1-5.04-1.224,8.65,8.65,0,0,1-3.438-3.51,11.107,11.107,0,0,1-1.242-5.382,11.213,11.213,0,0,1,1.242-5.4,8.622,8.622,0,0,1,3.438-3.528,10.177,10.177,0,0,1,5.04-1.224,9.949,9.949,0,0,1,5.022,1.224,8.427,8.427,0,0,1,3.276,3.276A9.22,9.22,0,0,1,152.28,27.02Zm-3.312.216a6.724,6.724,0,0,0-.72-3.672,5.264,5.264,0,0,0-2.268-2.2,6.9,6.9,0,0,0-3.132-.72,6.482,6.482,0,0,0-4.536,1.674,6.747,6.747,0,0,0-1.98,4.914Zm12.564-5a7.269,7.269,0,0,1,2.844-3.186,8.453,8.453,0,0,1,4.464-1.134v3.564h-1.008A7,7,0,0,0,163.3,22.9q-1.764,1.422-1.764,4.7V38h-3.276V18.236h3.276Zm21.2-4.248a10.485,10.485,0,0,1,5.094,1.224,8.759,8.759,0,0,1,3.528,3.528,10.956,10.956,0,0,1,1.278,5.4,10.853,10.853,0,0,1-1.278,5.382,8.789,8.789,0,0,1-3.528,3.51,11.212,11.212,0,0,1-10.188,0,8.907,8.907,0,0,1-3.546-3.51,10.732,10.732,0,0,1-1.3-5.382,10.833,10.833,0,0,1,1.3-5.4,8.876,8.876,0,0,1,3.546-3.528A10.485,10.485,0,0,1,182.736,17.984Zm0,2.88a6.848,6.848,0,0,0-3.258.792,5.954,5.954,0,0,0-2.412,2.43,8.185,8.185,0,0,0-.918,4.05,8.1,8.1,0,0,0,.918,4.014,5.954,5.954,0,0,0,2.412,2.43,7.1,7.1,0,0,0,6.516,0,5.955,5.955,0,0,0,2.412-2.43,8.1,8.1,0,0,0,.918-4.014,8.185,8.185,0,0,0-.918-4.05,5.955,5.955,0,0,0-2.412-2.43A6.848,6.848,0,0,0,182.736,20.864Zm22.068-2.88a7.977,7.977,0,0,1,5.382,1.746,7.354,7.354,0,0,1,2.466,4.7H209.52a4.535,4.535,0,0,0-1.458-2.9,4.748,4.748,0,0,0-3.33-1.134,4.108,4.108,0,0,0-2.754.846,2.852,2.852,0,0,0-.99,2.286,2.361,2.361,0,0,0,.666,1.746,4.273,4.273,0,0,0,1.656,1.008,27.624,27.624,0,0,0,2.718.738,26.7,26.7,0,0,1,3.546,1.026,5.555,5.555,0,0,1,2.3,1.674,4.7,4.7,0,0,1,.954,3.1,4.865,4.865,0,0,1-1.818,3.924,7.33,7.33,0,0,1-4.842,1.512,9.275,9.275,0,0,1-5.76-1.692,6.749,6.749,0,0,1-2.628-4.716h3.168a4.125,4.125,0,0,0,1.566,2.916,5.65,5.65,0,0,0,3.654,1.116,3.8,3.8,0,0,0,2.646-.864,2.915,2.915,0,0,0,.954-2.268,2.481,2.481,0,0,0-.684-1.836,4.485,4.485,0,0,0-1.692-1.044,24.746,24.746,0,0,0-2.772-.756,27.051,27.051,0,0,1-3.51-1.008,5.379,5.379,0,0,1-2.232-1.6,4.485,4.485,0,0,1-.918-2.97,4.972,4.972,0,0,1,1.836-4.014A7.578,7.578,0,0,1,204.8,17.984ZM10.764,68.936a9.488,9.488,0,0,1,4.212.864,6.145,6.145,0,0,1,2.664,2.376,6.557,6.557,0,0,1,.9,3.42,5.934,5.934,0,0,1-1.386,4,6.054,6.054,0,0,1-4.05,1.944v.216a9.583,9.583,0,0,1,4.338,2.232,5.533,5.533,0,0,1,1.566,4.176,6.729,6.729,0,0,1-2.088,5.112,8.407,8.407,0,0,1-6.012,1.98,9.569,9.569,0,0,1-6.354-2.034A8.636,8.636,0,0,1,1.692,87.26h3.24A6.135,6.135,0,0,0,6.75,91.04a5.676,5.676,0,0,0,4.05,1.4A5.149,5.149,0,0,0,14.508,91.2a4.262,4.262,0,0,0,1.3-3.222,4.083,4.083,0,0,0-1.854-3.618A9.441,9.441,0,0,0,8.676,83.12H7.812V80.384h.864q6.624,0,6.624-4.428a4.049,4.049,0,0,0-1.224-3.1,4.741,4.741,0,0,0-3.384-1.152A5.456,5.456,0,0,0,7.056,72.95,5.265,5.265,0,0,0,5.328,76.6h-3.2a8.009,8.009,0,0,1,2.5-5.634A8.813,8.813,0,0,1,10.764,68.936ZM46.908,82.292a13.9,13.9,0,0,1-1.548,6.714,10.611,10.611,0,0,1-4.554,4.428A15.446,15.446,0,0,1,33.588,95H25.524V69.62h8.064a15.749,15.749,0,0,1,7.218,1.53,10.4,10.4,0,0,1,4.554,4.392A13.983,13.983,0,0,1,46.908,82.292ZM33.336,92.048q4.968,0,7.6-2.556a9.581,9.581,0,0,0,2.628-7.2,9.68,9.68,0,0,0-2.61-7.218Q38.34,72.5,33.336,72.5H28.8V92.048ZM77.328,74.912a7.321,7.321,0,0,1,5.562,2.214Q85,79.34,85,83.516V95H81.72V83.8A6.371,6.371,0,0,0,80.3,79.34a5.04,5.04,0,0,0-3.906-1.548,5.367,5.367,0,0,0-4.158,1.71,7.2,7.2,0,0,0-1.566,5.022V95H67.392V83.8a6.32,6.32,0,0,0-1.44-4.464,5.053,5.053,0,0,0-3.888-1.548A5.41,5.41,0,0,0,57.87,79.5,7.2,7.2,0,0,0,56.3,84.524V95H53.028V75.236H56.3v4.5a6.421,6.421,0,0,1,2.574-3.582,8.036,8.036,0,0,1,8.64.036,6.954,6.954,0,0,1,2.646,3.762,7.144,7.144,0,0,1,2.772-3.726A7.662,7.662,0,0,1,77.328,74.912Zm22.536.072a8.121,8.121,0,0,1,4.878,1.44,7.505,7.505,0,0,1,2.79,3.852v-5.04h3.276V95h-3.276V89.96a7.505,7.505,0,0,1-2.79,3.852,8.121,8.121,0,0,1-4.878,1.44,8.958,8.958,0,0,1-4.68-1.224,8.466,8.466,0,0,1-3.222-3.51,13.005,13.005,0,0,1,0-10.782,8.442,8.442,0,0,1,3.222-3.528A8.958,8.958,0,0,1,99.864,74.984ZM100.8,77.9a6.345,6.345,0,0,0-4.842,1.926,7.426,7.426,0,0,0-1.818,5.31,7.426,7.426,0,0,0,1.818,5.31,6.345,6.345,0,0,0,4.842,1.926,6.722,6.722,0,0,0,3.474-.9,6.266,6.266,0,0,0,2.394-2.538,8.023,8.023,0,0,0,.864-3.8,8.131,8.131,0,0,0-.864-3.816,6.119,6.119,0,0,0-2.394-2.538A6.829,6.829,0,0,0,100.8,77.9ZM129.1,95l-5.148-7.56L119.3,95h-3.636l6.48-10.188-6.516-9.576h3.744l5,7.344,4.572-7.344h3.636l-6.444,9.936L132.84,95ZM4.284,126.62l7.74,21.744,7.848-21.744h3.564L14.112,152H9.972L.684,126.62Zm27.432,9.612a7.269,7.269,0,0,1,2.844-3.186,8.453,8.453,0,0,1,4.464-1.134v3.564H38.016A7,7,0,0,0,33.48,136.9q-1.764,1.422-1.764,4.7V152H28.44V132.236h3.276Zm20.34-4.248a8.121,8.121,0,0,1,4.878,1.44,7.505,7.505,0,0,1,2.79,3.852v-5.04H63V152H59.724v-5.04a7.505,7.505,0,0,1-2.79,3.852,8.121,8.121,0,0,1-4.878,1.44,8.959,8.959,0,0,1-4.68-1.224,8.466,8.466,0,0,1-3.222-3.51,13.005,13.005,0,0,1,0-10.782,8.442,8.442,0,0,1,3.222-3.528A8.958,8.958,0,0,1,52.056,131.984Zm.936,2.916a6.345,6.345,0,0,0-4.842,1.926,8.664,8.664,0,0,0,0,10.62,6.345,6.345,0,0,0,4.842,1.926,6.722,6.722,0,0,0,3.474-.9,6.265,6.265,0,0,0,2.394-2.538,8.023,8.023,0,0,0,.864-3.8,8.131,8.131,0,0,0-.864-3.816,6.119,6.119,0,0,0-2.394-2.538A6.829,6.829,0,0,0,52.992,134.9Zm18.288-2.664,6.408,15.552,5.94-15.552h3.636L75.528,161.36H71.82l4.1-9.684-8.316-19.44Zm-67,51.384,7.74,21.744,7.848-21.744h3.564L14.112,209H9.972L.684,183.62Zm27.432,9.612a7.269,7.269,0,0,1,2.844-3.186,8.453,8.453,0,0,1,4.464-1.134v3.564H38.016A7,7,0,0,0,33.48,193.9q-1.764,1.422-1.764,4.7V209H28.44V189.236h3.276Zm30.42,4.788a9.755,9.755,0,0,1-.144,1.8h-15.8a6.927,6.927,0,0,0,1.926,5.076,6.285,6.285,0,0,0,4.446,1.692,6.426,6.426,0,0,0,3.978-1.206A4.986,4.986,0,0,0,58.5,202.16h3.492a8.252,8.252,0,0,1-4.824,6.192,10.671,10.671,0,0,1-4.464.9,10.177,10.177,0,0,1-5.04-1.224,8.65,8.65,0,0,1-3.438-3.51,12.321,12.321,0,0,1,0-10.782,8.622,8.622,0,0,1,3.438-3.528,10.177,10.177,0,0,1,5.04-1.224,9.949,9.949,0,0,1,5.022,1.224A8.427,8.427,0,0,1,61,193.484,9.22,9.22,0,0,1,62.136,198.02Zm-3.312.216a6.724,6.724,0,0,0-.72-3.672,5.264,5.264,0,0,0-2.268-2.2,6.9,6.9,0,0,0-3.132-.72,6.482,6.482,0,0,0-4.536,1.674,6.747,6.747,0,0,0-1.98,4.914Zm17.388-9.252a8.121,8.121,0,0,1,4.878,1.44,7.505,7.505,0,0,1,2.79,3.852V182.36h3.276V209H83.88v-5.04a7.505,7.505,0,0,1-2.79,3.852,8.121,8.121,0,0,1-4.878,1.44,8.958,8.958,0,0,1-4.68-1.224,8.466,8.466,0,0,1-3.222-3.51,13,13,0,0,1,0-10.782,8.442,8.442,0,0,1,3.222-3.528A8.958,8.958,0,0,1,76.212,188.984Zm.936,2.916a6.345,6.345,0,0,0-4.842,1.926,8.664,8.664,0,0,0,0,10.62,6.345,6.345,0,0,0,4.842,1.926,6.722,6.722,0,0,0,3.474-.9,6.265,6.265,0,0,0,2.394-2.538,8.023,8.023,0,0,0,.864-3.8,8.131,8.131,0,0,0-.864-3.816,6.119,6.119,0,0,0-2.394-2.538A6.829,6.829,0,0,0,77.148,191.9ZM17.5,260.132H6.336L4.212,266H.684l9.4-24.912h3.708L23.148,266H19.62Zm-.936-2.556L11.916,244.76,7.272,257.576Zm19.692-11.592a8.121,8.121,0,0,1,4.878,1.44,7.505,7.505,0,0,1,2.79,3.852V239.36H47.2V266H43.92v-5.04a7.5,7.5,0,0,1-2.79,3.852,8.121,8.121,0,0,1-4.878,1.44,8.958,8.958,0,0,1-4.68-1.224,8.466,8.466,0,0,1-3.222-3.51,13.005,13.005,0,0,1,0-10.782,8.442,8.442,0,0,1,3.222-3.528A8.958,8.958,0,0,1,36.252,245.984Zm.936,2.916a6.345,6.345,0,0,0-4.842,1.926,8.664,8.664,0,0,0,0,10.62,6.345,6.345,0,0,0,4.842,1.926,6.722,6.722,0,0,0,3.474-.9,6.265,6.265,0,0,0,2.394-2.538,8.023,8.023,0,0,0,.864-3.8,8.131,8.131,0,0,0-.864-3.816,6.119,6.119,0,0,0-2.394-2.538A6.829,6.829,0,0,0,37.188,248.9Zm25.884-2.916a10.485,10.485,0,0,1,5.094,1.224,8.759,8.759,0,0,1,3.528,3.528,12.009,12.009,0,0,1,0,10.782,8.789,8.789,0,0,1-3.528,3.51,11.212,11.212,0,0,1-10.188,0,8.907,8.907,0,0,1-3.546-3.51,11.861,11.861,0,0,1,0-10.782,8.876,8.876,0,0,1,3.546-3.528A10.485,10.485,0,0,1,63.072,245.984Zm0,2.88a6.848,6.848,0,0,0-3.258.792,5.954,5.954,0,0,0-2.412,2.43,9.313,9.313,0,0,0,0,8.064,5.954,5.954,0,0,0,2.412,2.43,7.1,7.1,0,0,0,6.516,0,5.954,5.954,0,0,0,2.412-2.43,9.313,9.313,0,0,0,0-8.064,5.954,5.954,0,0,0-2.412-2.43A6.848,6.848,0,0,0,63.072,248.864Zm26.784-2.88a8.958,8.958,0,0,1,4.68,1.224,8.442,8.442,0,0,1,3.222,3.528,13.005,13.005,0,0,1,0,10.782,8.466,8.466,0,0,1-3.222,3.51,8.958,8.958,0,0,1-4.68,1.224,8.05,8.05,0,0,1-4.878-1.458,7.408,7.408,0,0,1-2.754-3.834V266H78.948V239.36h3.276v11.916a7.408,7.408,0,0,1,2.754-3.834A8.05,8.05,0,0,1,89.856,245.984ZM88.92,248.9a6.857,6.857,0,0,0-3.456.882,6.085,6.085,0,0,0-2.412,2.538,8.131,8.131,0,0,0-.864,3.816,8.023,8.023,0,0,0,.864,3.8,6.229,6.229,0,0,0,2.412,2.538,6.749,6.749,0,0,0,3.456.9,6.39,6.39,0,0,0,4.878-1.926,8.664,8.664,0,0,0,0-10.62A6.389,6.389,0,0,0,88.92,248.9Zm34.164,6.12a9.756,9.756,0,0,1-.144,1.8h-15.8a6.927,6.927,0,0,0,1.926,5.076,6.285,6.285,0,0,0,4.446,1.692,6.426,6.426,0,0,0,3.978-1.206,4.986,4.986,0,0,0,1.962-3.222h3.492a8.252,8.252,0,0,1-4.824,6.192,10.67,10.67,0,0,1-4.464.9,10.177,10.177,0,0,1-5.04-1.224,8.65,8.65,0,0,1-3.438-3.51,12.321,12.321,0,0,1,0-10.782,8.622,8.622,0,0,1,3.438-3.528,10.177,10.177,0,0,1,5.04-1.224,9.949,9.949,0,0,1,5.022,1.224,8.427,8.427,0,0,1,3.276,3.276A9.22,9.22,0,0,1,123.084,255.02Zm-3.312.216a6.724,6.724,0,0,0-.72-3.672,5.264,5.264,0,0,0-2.268-2.2,6.9,6.9,0,0,0-3.132-.72,6.482,6.482,0,0,0-4.536,1.674,6.747,6.747,0,0,0-1.98,4.914ZM142.92,240.62V266h-3.276V240.62Zm10.224-1.26V266h-3.276V239.36Zm10.224,0V266h-3.276V239.36Zm24.516,6.876V266h-3.276v-4.644a6.648,6.648,0,0,1-2.682,3.69,7.918,7.918,0,0,1-4.482,1.278,7.335,7.335,0,0,1-5.544-2.214,8.819,8.819,0,0,1-2.124-6.354v-11.52h3.276v11.2a6.38,6.38,0,0,0,1.512,4.554,5.373,5.373,0,0,0,4.1,1.6,5.611,5.611,0,0,0,4.32-1.746,7.232,7.232,0,0,0,1.62-5.094V246.236Zm13.14-.252a7.977,7.977,0,0,1,5.382,1.746,7.354,7.354,0,0,1,2.466,4.7H205.74a4.535,4.535,0,0,0-1.458-2.9,4.748,4.748,0,0,0-3.33-1.134,4.108,4.108,0,0,0-2.754.846,2.852,2.852,0,0,0-.99,2.286,2.361,2.361,0,0,0,.666,1.746,4.273,4.273,0,0,0,1.656,1.008,27.627,27.627,0,0,0,2.718.738,26.7,26.7,0,0,1,3.546,1.026,5.554,5.554,0,0,1,2.3,1.674,4.7,4.7,0,0,1,.954,3.1,4.865,4.865,0,0,1-1.818,3.924,7.33,7.33,0,0,1-4.842,1.512,9.275,9.275,0,0,1-5.76-1.692A6.749,6.749,0,0,1,194,259.844h3.168a4.125,4.125,0,0,0,1.566,2.916,5.65,5.65,0,0,0,3.654,1.116,3.8,3.8,0,0,0,2.646-.864,2.915,2.915,0,0,0,.954-2.268,2.481,2.481,0,0,0-.684-1.836,4.485,4.485,0,0,0-1.692-1.044,24.743,24.743,0,0,0-2.772-.756,27.051,27.051,0,0,1-3.51-1.008,5.379,5.379,0,0,1-2.232-1.6,4.485,4.485,0,0,1-.918-2.97,4.972,4.972,0,0,1,1.836-4.014A7.578,7.578,0,0,1,201.024,245.984Zm23.544,17.136V266H222.12a6.285,6.285,0,0,1-4.518-1.44q-1.494-1.44-1.494-4.824V249.08h-2.952v-2.844h2.952V241.3h3.312v4.932h5.112v2.844H219.42v10.728a3.7,3.7,0,0,0,.7,2.61,3.379,3.379,0,0,0,2.43.7Zm8.964-12.888a7.269,7.269,0,0,1,2.844-3.186,8.453,8.453,0,0,1,4.464-1.134v3.564h-1.008A7,7,0,0,0,235.3,250.9q-1.764,1.422-1.764,4.7V266h-3.276V246.236h3.276Zm20.34-4.248a8.121,8.121,0,0,1,4.878,1.44,7.5,7.5,0,0,1,2.79,3.852v-5.04h3.276V266H261.54v-5.04a7.5,7.5,0,0,1-2.79,3.852,8.121,8.121,0,0,1-4.878,1.44,8.958,8.958,0,0,1-4.68-1.224,8.466,8.466,0,0,1-3.222-3.51,13.005,13.005,0,0,1,0-10.782,8.442,8.442,0,0,1,3.222-3.528A8.958,8.958,0,0,1,253.872,245.984Zm.936,2.916a6.345,6.345,0,0,0-4.842,1.926,8.664,8.664,0,0,0,0,10.62,6.345,6.345,0,0,0,4.842,1.926,6.722,6.722,0,0,0,3.474-.9,6.266,6.266,0,0,0,2.394-2.538,8.023,8.023,0,0,0,.864-3.8,8.131,8.131,0,0,0-.864-3.816,6.119,6.119,0,0,0-2.394-2.538A6.829,6.829,0,0,0,254.808,248.9Zm26.352,14.22V266h-2.448a6.286,6.286,0,0,1-4.518-1.44q-1.494-1.44-1.494-4.824V249.08h-2.952v-2.844H272.7V241.3h3.312v4.932h5.112v2.844h-5.112v10.728a3.7,3.7,0,0,0,.7,2.61,3.379,3.379,0,0,0,2.43.7Zm14.652-17.136a10.485,10.485,0,0,1,5.094,1.224,8.759,8.759,0,0,1,3.528,3.528,12.009,12.009,0,0,1,0,10.782,8.789,8.789,0,0,1-3.528,3.51,11.212,11.212,0,0,1-10.188,0,8.907,8.907,0,0,1-3.546-3.51,11.861,11.861,0,0,1,0-10.782,8.876,8.876,0,0,1,3.546-3.528A10.485,10.485,0,0,1,295.812,245.984Zm0,2.88a6.848,6.848,0,0,0-3.258.792,5.955,5.955,0,0,0-2.412,2.43,9.313,9.313,0,0,0,0,8.064,5.954,5.954,0,0,0,2.412,2.43,7.1,7.1,0,0,0,6.516,0,5.954,5.954,0,0,0,2.412-2.43,9.313,9.313,0,0,0,0-8.064,5.954,5.954,0,0,0-2.412-2.43A6.848,6.848,0,0,0,295.812,248.864Zm19.152,1.368a7.269,7.269,0,0,1,2.844-3.186,8.453,8.453,0,0,1,4.464-1.134v3.564h-1.008a7,7,0,0,0-4.536,1.422q-1.764,1.422-1.764,4.7V266h-3.276V246.236h3.276ZM17.5,317.132H6.336L4.212,323H.684l9.4-24.912h3.708L23.148,323H19.62Zm-.936-2.556L11.916,301.76,7.272,314.576Zm19.692-11.592a8.121,8.121,0,0,1,4.878,1.44,7.5,7.5,0,0,1,2.79,3.852V296.36H47.2V323H43.92v-5.04a7.5,7.5,0,0,1-2.79,3.852,8.121,8.121,0,0,1-4.878,1.44,8.958,8.958,0,0,1-4.68-1.224,8.466,8.466,0,0,1-3.222-3.51,13.005,13.005,0,0,1,0-10.782,8.443,8.443,0,0,1,3.222-3.528A8.958,8.958,0,0,1,36.252,302.984Zm.936,2.916a6.345,6.345,0,0,0-4.842,1.926,8.664,8.664,0,0,0,0,10.62,6.345,6.345,0,0,0,4.842,1.926,6.722,6.722,0,0,0,3.474-.9,6.265,6.265,0,0,0,2.394-2.538,8.023,8.023,0,0,0,.864-3.8,8.131,8.131,0,0,0-.864-3.816,6.118,6.118,0,0,0-2.394-2.538A6.829,6.829,0,0,0,37.188,305.9Zm25.884-2.916a10.485,10.485,0,0,1,5.094,1.224,8.759,8.759,0,0,1,3.528,3.528,12.009,12.009,0,0,1,0,10.782,8.789,8.789,0,0,1-3.528,3.51,11.212,11.212,0,0,1-10.188,0,8.907,8.907,0,0,1-3.546-3.51,11.861,11.861,0,0,1,0-10.782,8.876,8.876,0,0,1,3.546-3.528A10.485,10.485,0,0,1,63.072,302.984Zm0,2.88a6.848,6.848,0,0,0-3.258.792,5.954,5.954,0,0,0-2.412,2.43,9.313,9.313,0,0,0,0,8.064,5.954,5.954,0,0,0,2.412,2.43,7.1,7.1,0,0,0,6.516,0,5.954,5.954,0,0,0,2.412-2.43,9.313,9.313,0,0,0,0-8.064,5.954,5.954,0,0,0-2.412-2.43A6.848,6.848,0,0,0,63.072,305.864Zm26.784-2.88a8.958,8.958,0,0,1,4.68,1.224,8.443,8.443,0,0,1,3.222,3.528,13.005,13.005,0,0,1,0,10.782,8.466,8.466,0,0,1-3.222,3.51,8.958,8.958,0,0,1-4.68,1.224,8.05,8.05,0,0,1-4.878-1.458,7.408,7.408,0,0,1-2.754-3.834V323H78.948V296.36h3.276v11.916a7.408,7.408,0,0,1,2.754-3.834A8.05,8.05,0,0,1,89.856,302.984ZM88.92,305.9a6.857,6.857,0,0,0-3.456.882,6.084,6.084,0,0,0-2.412,2.538,8.131,8.131,0,0,0-.864,3.816,8.023,8.023,0,0,0,.864,3.8,6.229,6.229,0,0,0,2.412,2.538,6.749,6.749,0,0,0,3.456.9,6.39,6.39,0,0,0,4.878-1.926,8.664,8.664,0,0,0,0-10.62A6.39,6.39,0,0,0,88.92,305.9Zm34.164,6.12a9.756,9.756,0,0,1-.144,1.8h-15.8a6.927,6.927,0,0,0,1.926,5.076,6.285,6.285,0,0,0,4.446,1.692,6.426,6.426,0,0,0,3.978-1.206,4.986,4.986,0,0,0,1.962-3.222h3.492a8.252,8.252,0,0,1-4.824,6.192,10.67,10.67,0,0,1-4.464.9,10.177,10.177,0,0,1-5.04-1.224,8.65,8.65,0,0,1-3.438-3.51,12.321,12.321,0,0,1,0-10.782,8.622,8.622,0,0,1,3.438-3.528,10.177,10.177,0,0,1,5.04-1.224,9.949,9.949,0,0,1,5.022,1.224,8.427,8.427,0,0,1,3.276,3.276A9.22,9.22,0,0,1,123.084,312.02Zm-3.312.216a6.724,6.724,0,0,0-.72-3.672,5.264,5.264,0,0,0-2.268-2.2,6.9,6.9,0,0,0-3.132-.72,6.482,6.482,0,0,0-4.536,1.674,6.747,6.747,0,0,0-1.98,4.914Zm23.148.54V323h-3.276V297.62h8.064q4.356,0,6.516,2.034a7.271,7.271,0,0,1,2.16,5.562,7.08,7.08,0,0,1-2.232,5.562q-2.232,2-6.444,2Zm4.5-2.736a6.083,6.083,0,0,0,4.3-1.26,5.564,5.564,0,0,0,0-7.182,6.143,6.143,0,0,0-4.3-1.242h-4.5v9.684Zm24.876-7.128a7.379,7.379,0,0,1,5.58,2.214Q180,307.34,180,311.516V323h-3.276V311.8a6.314,6.314,0,0,0-1.512-4.536,5.405,5.405,0,0,0-4.1-1.584,5.611,5.611,0,0,0-4.32,1.746,7.232,7.232,0,0,0-1.62,5.094V323h-3.276V296.36h3.276v11.556a6.733,6.733,0,0,1,2.682-3.708A7.775,7.775,0,0,1,172.3,302.912Zm23.4.072a10.485,10.485,0,0,1,5.094,1.224,8.759,8.759,0,0,1,3.528,3.528,12.009,12.009,0,0,1,0,10.782,8.789,8.789,0,0,1-3.528,3.51,11.212,11.212,0,0,1-10.188,0,8.907,8.907,0,0,1-3.546-3.51,11.861,11.861,0,0,1,0-10.782,8.876,8.876,0,0,1,3.546-3.528A10.485,10.485,0,0,1,195.7,302.984Zm0,2.88a6.848,6.848,0,0,0-3.258.792,5.954,5.954,0,0,0-2.412,2.43,9.313,9.313,0,0,0,0,8.064,5.954,5.954,0,0,0,2.412,2.43,7.1,7.1,0,0,0,6.516,0,5.954,5.954,0,0,0,2.412-2.43,9.313,9.313,0,0,0,0-8.064,5.954,5.954,0,0,0-2.412-2.43A6.848,6.848,0,0,0,195.7,305.864ZM221,320.12V323h-2.448a6.285,6.285,0,0,1-4.518-1.44q-1.494-1.44-1.494-4.824V306.08h-2.952v-2.844h2.952V298.3h3.312v4.932h5.112v2.844h-5.112v10.728a3.7,3.7,0,0,0,.7,2.61,3.379,3.379,0,0,0,2.43.7Zm14.652-17.136a10.485,10.485,0,0,1,5.094,1.224,8.759,8.759,0,0,1,3.528,3.528,12.009,12.009,0,0,1,0,10.782,8.789,8.789,0,0,1-3.528,3.51,11.212,11.212,0,0,1-10.188,0,8.907,8.907,0,0,1-3.546-3.51,11.861,11.861,0,0,1,0-10.782,8.876,8.876,0,0,1,3.546-3.528A10.485,10.485,0,0,1,235.656,302.984Zm0,2.88a6.848,6.848,0,0,0-3.258.792,5.954,5.954,0,0,0-2.412,2.43,9.313,9.313,0,0,0,0,8.064,5.954,5.954,0,0,0,2.412,2.43,7.1,7.1,0,0,0,6.516,0,5.954,5.954,0,0,0,2.412-2.43,9.313,9.313,0,0,0,0-8.064,5.954,5.954,0,0,0-2.412-2.43A6.848,6.848,0,0,0,235.656,305.864Zm22.068-2.88a7.977,7.977,0,0,1,5.382,1.746,7.354,7.354,0,0,1,2.466,4.7H262.44a4.535,4.535,0,0,0-1.458-2.9,4.748,4.748,0,0,0-3.33-1.134,4.108,4.108,0,0,0-2.754.846,2.852,2.852,0,0,0-.99,2.286,2.361,2.361,0,0,0,.666,1.746,4.273,4.273,0,0,0,1.656,1.008,27.629,27.629,0,0,0,2.718.738,26.7,26.7,0,0,1,3.546,1.026,5.555,5.555,0,0,1,2.3,1.674,4.7,4.7,0,0,1,.954,3.1,4.865,4.865,0,0,1-1.818,3.924,7.33,7.33,0,0,1-4.842,1.512,9.275,9.275,0,0,1-5.76-1.692,6.749,6.749,0,0,1-2.628-4.716h3.168a4.125,4.125,0,0,0,1.566,2.916,5.65,5.65,0,0,0,3.654,1.116,3.8,3.8,0,0,0,2.646-.864,2.915,2.915,0,0,0,.954-2.268,2.481,2.481,0,0,0-.684-1.836,4.485,4.485,0,0,0-1.692-1.044,24.743,24.743,0,0,0-2.772-.756,27.052,27.052,0,0,1-3.51-1.008,5.379,5.379,0,0,1-2.232-1.6,4.485,4.485,0,0,1-.918-2.97,4.972,4.972,0,0,1,1.836-4.014A7.578,7.578,0,0,1,257.724,302.984Zm24.516-.072a7.379,7.379,0,0,1,5.58,2.214q2.124,2.214,2.124,6.39V323h-3.276V311.8a6.314,6.314,0,0,0-1.512-4.536,5.405,5.405,0,0,0-4.1-1.584,5.611,5.611,0,0,0-4.32,1.746,7.232,7.232,0,0,0-1.62,5.094V323h-3.276V296.36h3.276v11.556a6.733,6.733,0,0,1,2.682-3.708A7.775,7.775,0,0,1,282.24,302.912Zm23.4.072a10.485,10.485,0,0,1,5.094,1.224,8.759,8.759,0,0,1,3.528,3.528,12.009,12.009,0,0,1,0,10.782,8.789,8.789,0,0,1-3.528,3.51,11.212,11.212,0,0,1-10.188,0,8.907,8.907,0,0,1-3.546-3.51,11.861,11.861,0,0,1,0-10.782,8.876,8.876,0,0,1,3.546-3.528A10.485,10.485,0,0,1,305.64,302.984Zm0,2.88a6.848,6.848,0,0,0-3.258.792,5.954,5.954,0,0,0-2.412,2.43,9.313,9.313,0,0,0,0,8.064,5.954,5.954,0,0,0,2.412,2.43,7.1,7.1,0,0,0,6.516,0,5.954,5.954,0,0,0,2.412-2.43,9.313,9.313,0,0,0,0-8.064,5.954,5.954,0,0,0-2.412-2.43A6.848,6.848,0,0,0,305.64,305.864Zm26.784-2.88a8.958,8.958,0,0,1,4.68,1.224,8.442,8.442,0,0,1,3.222,3.528,13,13,0,0,1,0,10.782,8.466,8.466,0,0,1-3.222,3.51,8.958,8.958,0,0,1-4.68,1.224,8.05,8.05,0,0,1-4.878-1.458,7.408,7.408,0,0,1-2.754-3.834v14.4h-3.276V303.236h3.276v5.04a7.408,7.408,0,0,1,2.754-3.834A8.05,8.05,0,0,1,332.424,302.984Zm-.936,2.916a6.856,6.856,0,0,0-3.456.882,6.084,6.084,0,0,0-2.412,2.538,8.131,8.131,0,0,0-.864,3.816,8.023,8.023,0,0,0,.864,3.8,6.229,6.229,0,0,0,2.412,2.538,6.749,6.749,0,0,0,3.456.9,6.39,6.39,0,0,0,4.878-1.926,8.664,8.664,0,0,0,0-10.62A6.39,6.39,0,0,0,331.488,305.9ZM17.5,374.132H6.336L4.212,380H.684l9.4-24.912h3.708L23.148,380H19.62Zm-.936-2.556L11.916,358.76,7.272,371.576Zm19.692-11.592a8.121,8.121,0,0,1,4.878,1.44,7.5,7.5,0,0,1,2.79,3.852V353.36H47.2V380H43.92v-5.04a7.5,7.5,0,0,1-2.79,3.852,8.121,8.121,0,0,1-4.878,1.44,8.958,8.958,0,0,1-4.68-1.224,8.466,8.466,0,0,1-3.222-3.51,13.005,13.005,0,0,1,0-10.782,8.443,8.443,0,0,1,3.222-3.528A8.958,8.958,0,0,1,36.252,359.984Zm.936,2.916a6.345,6.345,0,0,0-4.842,1.926,8.664,8.664,0,0,0,0,10.62,6.345,6.345,0,0,0,4.842,1.926,6.722,6.722,0,0,0,3.474-.9,6.265,6.265,0,0,0,2.394-2.538,8.023,8.023,0,0,0,.864-3.8,8.131,8.131,0,0,0-.864-3.816,6.118,6.118,0,0,0-2.394-2.538A6.829,6.829,0,0,0,37.188,362.9Zm25.884-2.916a10.485,10.485,0,0,1,5.094,1.224,8.759,8.759,0,0,1,3.528,3.528,12.009,12.009,0,0,1,0,10.782,8.789,8.789,0,0,1-3.528,3.51,11.212,11.212,0,0,1-10.188,0,8.907,8.907,0,0,1-3.546-3.51,11.861,11.861,0,0,1,0-10.782,8.876,8.876,0,0,1,3.546-3.528A10.485,10.485,0,0,1,63.072,359.984Zm0,2.88a6.848,6.848,0,0,0-3.258.792,5.954,5.954,0,0,0-2.412,2.43,9.313,9.313,0,0,0,0,8.064,5.954,5.954,0,0,0,2.412,2.43,7.1,7.1,0,0,0,6.516,0,5.954,5.954,0,0,0,2.412-2.43,9.313,9.313,0,0,0,0-8.064,5.954,5.954,0,0,0-2.412-2.43A6.848,6.848,0,0,0,63.072,362.864Zm26.784-2.88a8.958,8.958,0,0,1,4.68,1.224,8.443,8.443,0,0,1,3.222,3.528,13.005,13.005,0,0,1,0,10.782,8.466,8.466,0,0,1-3.222,3.51,8.958,8.958,0,0,1-4.68,1.224,8.05,8.05,0,0,1-4.878-1.458,7.408,7.408,0,0,1-2.754-3.834V380H78.948V353.36h3.276v11.916a7.408,7.408,0,0,1,2.754-3.834A8.05,8.05,0,0,1,89.856,359.984ZM88.92,362.9a6.857,6.857,0,0,0-3.456.882,6.084,6.084,0,0,0-2.412,2.538,8.131,8.131,0,0,0-.864,3.816,8.023,8.023,0,0,0,.864,3.8,6.229,6.229,0,0,0,2.412,2.538,6.749,6.749,0,0,0,3.456.9,6.39,6.39,0,0,0,4.878-1.926,8.664,8.664,0,0,0,0-10.62A6.39,6.39,0,0,0,88.92,362.9Zm34.164,6.12a9.756,9.756,0,0,1-.144,1.8h-15.8a6.927,6.927,0,0,0,1.926,5.076,6.285,6.285,0,0,0,4.446,1.692,6.426,6.426,0,0,0,3.978-1.206,4.986,4.986,0,0,0,1.962-3.222h3.492a8.252,8.252,0,0,1-4.824,6.192,10.67,10.67,0,0,1-4.464.9,10.177,10.177,0,0,1-5.04-1.224,8.65,8.65,0,0,1-3.438-3.51,12.321,12.321,0,0,1,0-10.782,8.622,8.622,0,0,1,3.438-3.528,10.177,10.177,0,0,1,5.04-1.224,9.949,9.949,0,0,1,5.022,1.224,8.427,8.427,0,0,1,3.276,3.276A9.22,9.22,0,0,1,123.084,369.02Zm-3.312.216a6.724,6.724,0,0,0-.72-3.672,5.264,5.264,0,0,0-2.268-2.2,6.9,6.9,0,0,0-3.132-.72,6.482,6.482,0,0,0-4.536,1.674,6.747,6.747,0,0,0-1.98,4.914ZM142.92,354.62V380h-3.276V354.62Zm17.352,5.292a7.379,7.379,0,0,1,5.58,2.214q2.124,2.214,2.124,6.39V380H164.7V368.8a6.314,6.314,0,0,0-1.512-4.536,5.405,5.405,0,0,0-4.1-1.584,5.611,5.611,0,0,0-4.32,1.746,7.232,7.232,0,0,0-1.62,5.094V380h-3.276V360.236h3.276v4.68a6.733,6.733,0,0,1,2.682-3.708A7.775,7.775,0,0,1,160.272,359.912Zm22.536.072a8.121,8.121,0,0,1,4.878,1.44,7.5,7.5,0,0,1,2.79,3.852V353.36h3.276V380h-3.276v-5.04a7.5,7.5,0,0,1-2.79,3.852,8.121,8.121,0,0,1-4.878,1.44,8.958,8.958,0,0,1-4.68-1.224,8.466,8.466,0,0,1-3.222-3.51,13.005,13.005,0,0,1,0-10.782,8.443,8.443,0,0,1,3.222-3.528A8.958,8.958,0,0,1,182.808,359.984Zm.936,2.916a6.345,6.345,0,0,0-4.842,1.926,8.664,8.664,0,0,0,0,10.62,6.345,6.345,0,0,0,4.842,1.926,6.722,6.722,0,0,0,3.474-.9,6.265,6.265,0,0,0,2.394-2.538,8.023,8.023,0,0,0,.864-3.8,8.131,8.131,0,0,0-.864-3.816,6.118,6.118,0,0,0-2.394-2.538A6.829,6.829,0,0,0,183.744,362.9Zm35.1,6.12a9.756,9.756,0,0,1-.144,1.8H202.9a6.927,6.927,0,0,0,1.926,5.076,6.285,6.285,0,0,0,4.446,1.692,6.426,6.426,0,0,0,3.978-1.206,4.986,4.986,0,0,0,1.962-3.222H218.7a8.252,8.252,0,0,1-4.824,6.192,10.67,10.67,0,0,1-4.464.9,10.177,10.177,0,0,1-5.04-1.224,8.65,8.65,0,0,1-3.438-3.51,12.321,12.321,0,0,1,0-10.782,8.622,8.622,0,0,1,3.438-3.528,10.177,10.177,0,0,1,5.04-1.224,9.949,9.949,0,0,1,5.022,1.224,8.427,8.427,0,0,1,3.276,3.276A9.22,9.22,0,0,1,218.844,369.02Zm-3.312.216a6.724,6.724,0,0,0-.72-3.672,5.264,5.264,0,0,0-2.268-2.2,6.9,6.9,0,0,0-3.132-.72,6.482,6.482,0,0,0-4.536,1.674,6.747,6.747,0,0,0-1.98,4.914Zm15.48-9.252a7.977,7.977,0,0,1,5.382,1.746,7.354,7.354,0,0,1,2.466,4.7h-3.132a4.535,4.535,0,0,0-1.458-2.9,4.748,4.748,0,0,0-3.33-1.134,4.108,4.108,0,0,0-2.754.846,2.852,2.852,0,0,0-.99,2.286,2.361,2.361,0,0,0,.666,1.746,4.273,4.273,0,0,0,1.656,1.008,27.629,27.629,0,0,0,2.718.738,26.7,26.7,0,0,1,3.546,1.026,5.554,5.554,0,0,1,2.3,1.674,4.7,4.7,0,0,1,.954,3.1,4.865,4.865,0,0,1-1.818,3.924,7.33,7.33,0,0,1-4.842,1.512,9.275,9.275,0,0,1-5.76-1.692,6.749,6.749,0,0,1-2.628-4.716h3.168a4.125,4.125,0,0,0,1.566,2.916,5.65,5.65,0,0,0,3.654,1.116,3.8,3.8,0,0,0,2.646-.864,2.915,2.915,0,0,0,.954-2.268,2.481,2.481,0,0,0-.684-1.836,4.485,4.485,0,0,0-1.692-1.044,24.743,24.743,0,0,0-2.772-.756,27.051,27.051,0,0,1-3.51-1.008,5.379,5.379,0,0,1-2.232-1.6,4.485,4.485,0,0,1-.918-2.97,4.972,4.972,0,0,1,1.836-4.014A7.578,7.578,0,0,1,231.012,359.984Zm13.536-5.544a1.881,1.881,0,0,1,.612-1.458,2.631,2.631,0,0,1,3.24,0,2.043,2.043,0,0,1,0,2.916,2.631,2.631,0,0,1-3.24,0A1.881,1.881,0,0,1,244.548,354.44Zm3.852,5.8V380h-3.276V360.236Zm15.048-.252a8.121,8.121,0,0,1,4.878,1.44,7.505,7.505,0,0,1,2.79,3.852v-5.04h3.276v20.088a10.03,10.03,0,0,1-1.152,4.86A8.274,8.274,0,0,1,270,388.5a9.658,9.658,0,0,1-4.86,1.188,10.434,10.434,0,0,1-6.516-1.926,8.5,8.5,0,0,1-3.2-5.2h3.24a5.612,5.612,0,0,0,2.178,3.114,6.972,6.972,0,0,0,4.122,1.134,6.045,6.045,0,0,0,4.41-1.71,6.371,6.371,0,0,0,1.746-4.77V374.96a7.505,7.505,0,0,1-2.79,3.852,8.121,8.121,0,0,1-4.878,1.44,8.958,8.958,0,0,1-4.68-1.224,8.466,8.466,0,0,1-3.222-3.51,13.005,13.005,0,0,1,0-10.782,8.442,8.442,0,0,1,3.222-3.528A8.958,8.958,0,0,1,263.448,359.984Zm.936,2.916a6.345,6.345,0,0,0-4.842,1.926,8.664,8.664,0,0,0,0,10.62,6.345,6.345,0,0,0,4.842,1.926,6.722,6.722,0,0,0,3.474-.9,6.265,6.265,0,0,0,2.394-2.538,8.023,8.023,0,0,0,.864-3.8,8.131,8.131,0,0,0-.864-3.816,6.118,6.118,0,0,0-2.394-2.538A6.829,6.829,0,0,0,264.384,362.9Zm27.324-2.988a7.379,7.379,0,0,1,5.58,2.214q2.124,2.214,2.124,6.39V380h-3.276V368.8a6.314,6.314,0,0,0-1.512-4.536,5.405,5.405,0,0,0-4.1-1.584,5.611,5.611,0,0,0-4.32,1.746,7.232,7.232,0,0,0-1.62,5.094V380H281.3V360.236h3.276v4.68a6.733,6.733,0,0,1,2.682-3.708A7.775,7.775,0,0,1,291.708,359.912ZM17.5,431.132H6.336L4.212,437H.684l9.4-24.912h3.708L23.148,437H19.62Zm-.936-2.556L11.916,415.76,7.272,428.576Zm19.692-11.592a8.121,8.121,0,0,1,4.878,1.44,7.5,7.5,0,0,1,2.79,3.852V410.36H47.2V437H43.92v-5.04a7.5,7.5,0,0,1-2.79,3.852,8.121,8.121,0,0,1-4.878,1.44,8.958,8.958,0,0,1-4.68-1.224,8.466,8.466,0,0,1-3.222-3.51,13.005,13.005,0,0,1,0-10.782,8.443,8.443,0,0,1,3.222-3.528A8.958,8.958,0,0,1,36.252,416.984Zm.936,2.916a6.345,6.345,0,0,0-4.842,1.926,8.664,8.664,0,0,0,0,10.62,6.345,6.345,0,0,0,4.842,1.926,6.722,6.722,0,0,0,3.474-.9,6.265,6.265,0,0,0,2.394-2.538,8.023,8.023,0,0,0,.864-3.8,8.131,8.131,0,0,0-.864-3.816,6.118,6.118,0,0,0-2.394-2.538A6.829,6.829,0,0,0,37.188,419.9Zm25.884-2.916a10.485,10.485,0,0,1,5.094,1.224,8.759,8.759,0,0,1,3.528,3.528,12.009,12.009,0,0,1,0,10.782,8.789,8.789,0,0,1-3.528,3.51,11.212,11.212,0,0,1-10.188,0,8.907,8.907,0,0,1-3.546-3.51,11.861,11.861,0,0,1,0-10.782,8.876,8.876,0,0,1,3.546-3.528A10.485,10.485,0,0,1,63.072,416.984Zm0,2.88a6.848,6.848,0,0,0-3.258.792,5.954,5.954,0,0,0-2.412,2.43,9.313,9.313,0,0,0,0,8.064,5.954,5.954,0,0,0,2.412,2.43,7.1,7.1,0,0,0,6.516,0,5.954,5.954,0,0,0,2.412-2.43,9.313,9.313,0,0,0,0-8.064,5.954,5.954,0,0,0-2.412-2.43A6.848,6.848,0,0,0,63.072,419.864Zm26.784-2.88a8.958,8.958,0,0,1,4.68,1.224,8.443,8.443,0,0,1,3.222,3.528,13.005,13.005,0,0,1,0,10.782,8.466,8.466,0,0,1-3.222,3.51,8.958,8.958,0,0,1-4.68,1.224,8.05,8.05,0,0,1-4.878-1.458,7.408,7.408,0,0,1-2.754-3.834V437H78.948V410.36h3.276v11.916a7.408,7.408,0,0,1,2.754-3.834A8.05,8.05,0,0,1,89.856,416.984ZM88.92,419.9a6.857,6.857,0,0,0-3.456.882,6.084,6.084,0,0,0-2.412,2.538,8.131,8.131,0,0,0-.864,3.816,8.023,8.023,0,0,0,.864,3.8,6.229,6.229,0,0,0,2.412,2.538,6.749,6.749,0,0,0,3.456.9,6.39,6.39,0,0,0,4.878-1.926,8.664,8.664,0,0,0,0-10.62A6.39,6.39,0,0,0,88.92,419.9Zm34.164,6.12a9.756,9.756,0,0,1-.144,1.8h-15.8a6.927,6.927,0,0,0,1.926,5.076,6.285,6.285,0,0,0,4.446,1.692,6.426,6.426,0,0,0,3.978-1.206,4.986,4.986,0,0,0,1.962-3.222h3.492a8.252,8.252,0,0,1-4.824,6.192,10.67,10.67,0,0,1-4.464.9,10.177,10.177,0,0,1-5.04-1.224,8.65,8.65,0,0,1-3.438-3.51,12.321,12.321,0,0,1,0-10.782,8.622,8.622,0,0,1,3.438-3.528,10.177,10.177,0,0,1,5.04-1.224,9.949,9.949,0,0,1,5.022,1.224,8.427,8.427,0,0,1,3.276,3.276A9.22,9.22,0,0,1,123.084,426.02Zm-3.312.216a6.724,6.724,0,0,0-.72-3.672,5.264,5.264,0,0,0-2.268-2.2,6.9,6.9,0,0,0-3.132-.72,6.482,6.482,0,0,0-4.536,1.674,6.747,6.747,0,0,0-1.98,4.914ZM153.792,437l-6.372-10.044L141.624,437h-3.78l7.74-12.924L137.7,411.62h3.924l6.228,9.864,5.832-9.864h3.78l-7.776,12.708L157.68,437ZM184.1,424.292a13.9,13.9,0,0,1-1.548,6.714A10.611,10.611,0,0,1,178,435.434,15.446,15.446,0,0,1,170.784,437H162.72V411.62h8.064A15.749,15.749,0,0,1,178,413.15a10.4,10.4,0,0,1,4.554,4.392A13.983,13.983,0,0,1,184.1,424.292Zm-13.572,9.756q4.968,0,7.6-2.556a9.581,9.581,0,0,0,2.628-7.2,9.68,9.68,0,0,0-2.61-7.218q-2.61-2.574-7.614-2.574H166v19.548ZM5.9,483.776V494H2.628V468.62h8.064q4.356,0,6.516,2.034a7.271,7.271,0,0,1,2.16,5.562,7.08,7.08,0,0,1-2.232,5.562q-2.232,2-6.444,2Zm4.5-2.736a6.083,6.083,0,0,0,4.3-1.26,5.564,5.564,0,0,0,0-7.182,6.143,6.143,0,0,0-4.3-1.242H5.9v9.684Zm17.748-2.808A7.269,7.269,0,0,1,31,475.046a8.453,8.453,0,0,1,4.464-1.134v3.564H34.452a7,7,0,0,0-4.536,1.422q-1.764,1.422-1.764,4.7V494H24.876V474.236h3.276Zm29.808-4V494H54.684v-4.644A6.648,6.648,0,0,1,52,493.046a7.917,7.917,0,0,1-4.482,1.278,7.335,7.335,0,0,1-5.544-2.214,8.819,8.819,0,0,1-2.124-6.354v-11.52h3.276v11.2a6.38,6.38,0,0,0,1.512,4.554,5.373,5.373,0,0,0,4.1,1.6,5.611,5.611,0,0,0,4.32-1.746,7.232,7.232,0,0,0,1.62-5.094V474.236Zm13.14-.252a7.977,7.977,0,0,1,5.382,1.746,7.354,7.354,0,0,1,2.466,4.7H75.816a4.535,4.535,0,0,0-1.458-2.9,4.748,4.748,0,0,0-3.33-1.134,4.108,4.108,0,0,0-2.754.846,2.852,2.852,0,0,0-.99,2.286,2.361,2.361,0,0,0,.666,1.746,4.273,4.273,0,0,0,1.656,1.008,27.63,27.63,0,0,0,2.718.738,26.7,26.7,0,0,1,3.546,1.026,5.554,5.554,0,0,1,2.3,1.674,4.7,4.7,0,0,1,.954,3.1,4.865,4.865,0,0,1-1.818,3.924,7.33,7.33,0,0,1-4.842,1.512,9.275,9.275,0,0,1-5.76-1.692,6.749,6.749,0,0,1-2.628-4.716h3.168a4.125,4.125,0,0,0,1.566,2.916,5.65,5.65,0,0,0,3.654,1.116,3.8,3.8,0,0,0,2.646-.864,2.915,2.915,0,0,0,.954-2.268,2.481,2.481,0,0,0-.684-1.836,4.485,4.485,0,0,0-1.692-1.044,24.743,24.743,0,0,0-2.772-.756,27.052,27.052,0,0,1-3.51-1.008,5.379,5.379,0,0,1-2.232-1.6,4.485,4.485,0,0,1-.918-2.97,4.972,4.972,0,0,1,1.836-4.014A7.578,7.578,0,0,1,71.1,473.984Zm22.212,0a8.121,8.121,0,0,1,4.878,1.44,7.5,7.5,0,0,1,2.79,3.852v-5.04h3.276V494H100.98v-5.04a7.5,7.5,0,0,1-2.79,3.852,8.121,8.121,0,0,1-4.878,1.44,8.958,8.958,0,0,1-4.68-1.224,8.466,8.466,0,0,1-3.222-3.51,13,13,0,0,1,0-10.782,8.443,8.443,0,0,1,3.222-3.528A8.958,8.958,0,0,1,93.312,473.984Zm.936,2.916a6.345,6.345,0,0,0-4.842,1.926,8.664,8.664,0,0,0,0,10.62,6.345,6.345,0,0,0,4.842,1.926,6.722,6.722,0,0,0,3.474-.9,6.265,6.265,0,0,0,2.394-2.538,8.023,8.023,0,0,0,.864-3.8,8.131,8.131,0,0,0-.864-3.816,6.118,6.118,0,0,0-2.394-2.538A6.829,6.829,0,0,0,94.248,476.9Zm33.7-2.916a7.977,7.977,0,0,1,5.382,1.746,7.354,7.354,0,0,1,2.466,4.7H132.66a4.535,4.535,0,0,0-1.458-2.9,4.748,4.748,0,0,0-3.33-1.134,4.108,4.108,0,0,0-2.754.846,2.852,2.852,0,0,0-.99,2.286,2.361,2.361,0,0,0,.666,1.746,4.273,4.273,0,0,0,1.656,1.008,27.629,27.629,0,0,0,2.718.738,26.7,26.7,0,0,1,3.546,1.026,5.554,5.554,0,0,1,2.3,1.674,4.7,4.7,0,0,1,.954,3.1,4.865,4.865,0,0,1-1.818,3.924,7.33,7.33,0,0,1-4.842,1.512,9.275,9.275,0,0,1-5.76-1.692,6.749,6.749,0,0,1-2.628-4.716h3.168a4.125,4.125,0,0,0,1.566,2.916,5.65,5.65,0,0,0,3.654,1.116,3.8,3.8,0,0,0,2.646-.864,2.915,2.915,0,0,0,.954-2.268,2.481,2.481,0,0,0-.684-1.836,4.485,4.485,0,0,0-1.692-1.044,24.743,24.743,0,0,0-2.772-.756,27.052,27.052,0,0,1-3.51-1.008,5.379,5.379,0,0,1-2.232-1.6,4.485,4.485,0,0,1-.918-2.97,4.972,4.972,0,0,1,1.836-4.014A7.578,7.578,0,0,1,127.944,473.984Zm17.388-6.624V494h-3.276V467.36Zm6.372,1.08a1.881,1.881,0,0,1,.612-1.458,2.631,2.631,0,0,1,3.24,0,2.043,2.043,0,0,1,0,2.916,2.631,2.631,0,0,1-3.24,0A1.881,1.881,0,0,1,151.7,468.44Zm3.852,5.8V494H152.28V474.236Zm15.7-.252A9.618,9.618,0,0,1,177.516,476a8.54,8.54,0,0,1,3.06,5.4H177.12a5.053,5.053,0,0,0-1.962-3.33,6.936,6.936,0,0,0-7.128-.414,5.76,5.76,0,0,0-2.286,2.43,9.924,9.924,0,0,0,0,8.1,5.76,5.76,0,0,0,2.286,2.43,6.889,6.889,0,0,0,7.128-.432,5.121,5.121,0,0,0,1.962-3.348h3.456a8.492,8.492,0,0,1-3.06,5.418,9.676,9.676,0,0,1-6.264,2,10.177,10.177,0,0,1-5.04-1.224,8.65,8.65,0,0,1-3.438-3.51,12.321,12.321,0,0,1,0-10.782,8.622,8.622,0,0,1,3.438-3.528A10.177,10.177,0,0,1,171.252,473.984Zm33.48,9.036a9.756,9.756,0,0,1-.144,1.8h-15.8a6.927,6.927,0,0,0,1.926,5.076,6.285,6.285,0,0,0,4.446,1.692,6.426,6.426,0,0,0,3.978-1.206,4.986,4.986,0,0,0,1.962-3.222h3.492a8.252,8.252,0,0,1-4.824,6.192,10.67,10.67,0,0,1-4.464.9,10.177,10.177,0,0,1-5.04-1.224,8.65,8.65,0,0,1-3.438-3.51,12.321,12.321,0,0,1,0-10.782,8.622,8.622,0,0,1,3.438-3.528,10.177,10.177,0,0,1,5.04-1.224,9.949,9.949,0,0,1,5.022,1.224,8.427,8.427,0,0,1,3.276,3.276A9.22,9.22,0,0,1,204.732,483.02Zm-3.312.216a6.724,6.724,0,0,0-.72-3.672,5.264,5.264,0,0,0-2.268-2.2,6.9,6.9,0,0,0-3.132-.72,6.482,6.482,0,0,0-4.536,1.674,6.747,6.747,0,0,0-1.98,4.914Zm12.564-5a7.269,7.269,0,0,1,2.844-3.186,8.453,8.453,0,0,1,4.464-1.134v3.564h-1.008a7,7,0,0,0-4.536,1.422q-1.764,1.422-1.764,4.7V494h-3.276V474.236h3.276Z" transform="translate(1100 1735)"/>
    <g id="Group_22" data-name="Group 22" transform="translate(68 4)">
      <circle id="Ellipse_1" data-name="Ellipse 1" cx="12" cy="12" r="12" transform="translate(1434 1746)" fill="#f709ff"/>
      <circle id="Ellipse_2" data-name="Ellipse 2" cx="12" cy="12" r="12" transform="translate(1478 1746)" fill="#f709ff"/>
      <circle id="Ellipse_5" data-name="Ellipse 5" cx="12" cy="12" r="12" transform="translate(1566 1746)" fill="#f709ff"/>
      <circle id="Ellipse_3" data-name="Ellipse 3" cx="12" cy="12" r="12" transform="translate(1522 1746)" fill="#f709ff"/>
      <circle id="Ellipse_4" data-name="Ellipse 4" cx="12" cy="12" r="12" transform="translate(1610 1746)" fill="#f709ff"/>
    </g>
    <g id="Group_24" data-name="Group 24" transform="translate(68 118)">
      <circle id="Ellipse_1-2" data-name="Ellipse 1" cx="12" cy="12" r="12" transform="translate(1434 1746)" fill="#f709ff"/>
      <circle id="Ellipse_2-2" data-name="Ellipse 2" cx="12" cy="12" r="12" transform="translate(1478 1746)" fill="#f709ff"/>
      <circle id="Ellipse_5-2" data-name="Ellipse 5" cx="12" cy="12" r="12" transform="translate(1566 1746)" fill="#f709ff"/>
      <circle id="Ellipse_3-2" data-name="Ellipse 3" cx="12" cy="12" r="12" transform="translate(1522 1746)" fill="#f709ff"/>
      <g id="Ellipse_4-2" data-name="Ellipse 4" transform="translate(1610 1746)" fill="none" stroke="#000" stroke-width="1">
        <circle cx="12" cy="12" r="12" stroke="none"/>
        <circle cx="12" cy="12" r="11.5" fill="none"/>
      </g>
    </g>
    <g id="Group_26" data-name="Group 26" transform="translate(68 232)">
      <circle id="Ellipse_1-3" data-name="Ellipse 1" cx="12" cy="12" r="12" transform="translate(1434 1746)" fill="#f709ff"/>
      <circle id="Ellipse_2-3" data-name="Ellipse 2" cx="12" cy="12" r="12" transform="translate(1478 1746)" fill="#f709ff"/>
      <circle id="Ellipse_5-3" data-name="Ellipse 5" cx="12" cy="12" r="12" transform="translate(1566 1746)" fill="#f709ff"/>
      <circle id="Ellipse_3-3" data-name="Ellipse 3" cx="12" cy="12" r="12" transform="translate(1522 1746)" fill="#f709ff"/>
      <g id="Ellipse_4-3" data-name="Ellipse 4" transform="translate(1610 1746)" fill="none" stroke="#000" stroke-width="1">
        <circle cx="12" cy="12" r="12" stroke="none"/>
        <circle cx="12" cy="12" r="11.5" fill="none"/>
      </g>
    </g>
    <g id="Group_28" data-name="Group 28" transform="translate(68 346)">
      <circle id="Ellipse_1-4" data-name="Ellipse 1" cx="12" cy="12" r="12" transform="translate(1434 1746)" fill="#f709ff"/>
      <circle id="Ellipse_2-4" data-name="Ellipse 2" cx="12" cy="12" r="12" transform="translate(1478 1746)" fill="#f709ff"/>
      <g id="Ellipse_5-4" data-name="Ellipse 5" transform="translate(1566 1746)" fill="none" stroke="#000" stroke-width="1">
        <circle cx="12" cy="12" r="12" stroke="none"/>
        <circle cx="12" cy="12" r="11.5" fill="none"/>
      </g>
      <g id="Ellipse_3-4" data-name="Ellipse 3" transform="translate(1522 1746)" fill="none" stroke="#000" stroke-width="1">
        <circle cx="12" cy="12" r="12" stroke="none"/>
        <circle cx="12" cy="12" r="11.5" fill="none"/>
      </g>
      <g id="Ellipse_4-4" data-name="Ellipse 4" transform="translate(1610 1746)" fill="none" stroke="#000" stroke-width="1">
        <circle cx="12" cy="12" r="12" stroke="none"/>
        <circle cx="12" cy="12" r="11.5" fill="none"/>
      </g>
    </g>
    <g id="Group_30" data-name="Group 30" transform="translate(68 460)">
      <circle id="Ellipse_1-5" data-name="Ellipse 1" cx="12" cy="12" r="12" transform="translate(1434 1746)" fill="#f709ff"/>
      <circle id="Ellipse_2-5" data-name="Ellipse 2" cx="12" cy="12" r="12" transform="translate(1478 1746)" fill="#f709ff"/>
      <circle id="Ellipse_5-5" data-name="Ellipse 5" cx="12" cy="12" r="12" transform="translate(1566 1746)" fill="#f709ff"/>
      <circle id="Ellipse_3-5" data-name="Ellipse 3" cx="12" cy="12" r="12" transform="translate(1522 1746)" fill="#f709ff"/>
      <g id="Ellipse_4-5" data-name="Ellipse 4" transform="translate(1610 1746)" fill="none" stroke="#000" stroke-width="1">
        <circle cx="12" cy="12" r="12" stroke="none"/>
        <circle cx="12" cy="12" r="11.5" fill="none"/>
      </g>
    </g>
    <g id="Group_23" data-name="Group 23" transform="translate(68 61)">
      <circle id="Ellipse_1-6" data-name="Ellipse 1" cx="12" cy="12" r="12" transform="translate(1434 1746)" fill="#f709ff"/>
      <circle id="Ellipse_2-6" data-name="Ellipse 2" cx="12" cy="12" r="12" transform="translate(1478 1746)" fill="#f709ff"/>
      <g id="Ellipse_5-6" data-name="Ellipse 5" transform="translate(1566 1746)" fill="none" stroke="#000" stroke-width="1">
        <circle cx="12" cy="12" r="12" stroke="none"/>
        <circle cx="12" cy="12" r="11.5" fill="none"/>
      </g>
      <g id="Ellipse_3-6" data-name="Ellipse 3" transform="translate(1522 1746)" fill="none" stroke="#000" stroke-width="1">
        <circle cx="12" cy="12" r="12" stroke="none"/>
        <circle cx="12" cy="12" r="11.5" fill="none"/>
      </g>
      <g id="Ellipse_4-6" data-name="Ellipse 4" transform="translate(1610 1746)" fill="none" stroke="#000" stroke-width="1">
        <circle cx="12" cy="12" r="12" stroke="none"/>
        <circle cx="12" cy="12" r="11.5" fill="none"/>
      </g>
    </g>
    <g id="Group_25" data-name="Group 25" transform="translate(68 175)">
      <circle id="Ellipse_1-7" data-name="Ellipse 1" cx="12" cy="12" r="12" transform="translate(1434 1746)" fill="#f709ff"/>
      <circle id="Ellipse_2-7" data-name="Ellipse 2" cx="12" cy="12" r="12" transform="translate(1478 1746)" fill="#f709ff"/>
      <circle id="Ellipse_5-7" data-name="Ellipse 5" cx="12" cy="12" r="12" transform="translate(1566 1746)" fill="#f709ff"/>
      <circle id="Ellipse_3-7" data-name="Ellipse 3" cx="12" cy="12" r="12" transform="translate(1522 1746)" fill="#f709ff"/>
      <g id="Ellipse_4-7" data-name="Ellipse 4" transform="translate(1610 1746)" fill="none" stroke="#000" stroke-width="1">
        <circle cx="12" cy="12" r="12" stroke="none"/>
        <circle cx="12" cy="12" r="11.5" fill="none"/>
      </g>
    </g>
    <g id="Group_27" data-name="Group 27" transform="translate(68 289)">
      <circle id="Ellipse_1-8" data-name="Ellipse 1" cx="12" cy="12" r="12" transform="translate(1434 1746)" fill="#f709ff"/>
      <circle id="Ellipse_2-8" data-name="Ellipse 2" cx="12" cy="12" r="12" transform="translate(1478 1746)" fill="#f709ff"/>
      <g id="Ellipse_5-8" data-name="Ellipse 5" transform="translate(1566 1746)" fill="none" stroke="#000" stroke-width="1">
        <circle cx="12" cy="12" r="12" stroke="none"/>
        <circle cx="12" cy="12" r="11.5" fill="none"/>
      </g>
      <circle id="Ellipse_3-8" data-name="Ellipse 3" cx="12" cy="12" r="12" transform="translate(1522 1746)" fill="#f709ff"/>
      <g id="Ellipse_4-8" data-name="Ellipse 4" transform="translate(1610 1746)" fill="none" stroke="#000" stroke-width="1">
        <circle cx="12" cy="12" r="12" stroke="none"/>
        <circle cx="12" cy="12" r="11.5" fill="none"/>
      </g>
    </g>
    <g id="Group_29" data-name="Group 29" transform="translate(68 403)">
      <circle id="Ellipse_1-9" data-name="Ellipse 1" cx="12" cy="12" r="12" transform="translate(1434 1746)" fill="#f709ff"/>
      <circle id="Ellipse_2-9" data-name="Ellipse 2" cx="12" cy="12" r="12" transform="translate(1478 1746)" fill="#f709ff"/>
      <circle id="Ellipse_5-9" data-name="Ellipse 5" cx="12" cy="12" r="12" transform="translate(1566 1746)" fill="#f709ff"/>
      <circle id="Ellipse_3-9" data-name="Ellipse 3" cx="12" cy="12" r="12" transform="translate(1522 1746)" fill="#f709ff"/>
      <g id="Ellipse_4-9" data-name="Ellipse 4" transform="translate(1610 1746)" fill="none" stroke="#000" stroke-width="1">
        <circle cx="12" cy="12" r="12" stroke="none"/>
        <circle cx="12" cy="12" r="11.5" fill="none"/>
      </g>
    </g>
  </g>
</svg>
