<svg id="Group_13" data-name="Group 13" xmlns="http://www.w3.org/2000/svg" width="51.215" height="51.215" viewBox="0 0 51.215 51.215">
  <path id="Path_24" data-name="Path 24" d="M172,179.72h0a25.608,25.608,0,0,1-25.608-25.607h0A25.608,25.608,0,0,1,172,128.505h0a25.607,25.607,0,0,1,25.607,25.608h0A25.607,25.607,0,0,1,172,179.72Z" transform="translate(-146.391 -128.505)"/>
  <path id="Path_25" data-name="Path 25" d="M163.355,166.99h6.233V151.38h4.35l.463-5.226h-4.813v-2.976c0-1.233.248-1.72,1.44-1.72H174.4v-5.424h-4.317c-4.638,0-6.729,2.043-6.729,5.953v4.167h-3.243v5.292h3.243Z" transform="translate(-141.649 -125.903)" fill="#fff"/>
</svg>
