<svg id="Group_18" data-name="Group 18" xmlns="http://www.w3.org/2000/svg" width="51.215" height="51.215" viewBox="0 0 51.215 51.215">
  <path id="Path_30" data-name="Path 30" d="M172,233.645h0a25.608,25.608,0,0,1-25.608-25.607h0A25.609,25.609,0,0,1,172,182.43h0a25.608,25.608,0,0,1,25.607,25.608h0A25.607,25.607,0,0,1,172,233.645Z" transform="translate(-146.391 -182.43)"/>
  <g id="Group_17" data-name="Group 17" transform="translate(11.171 16.418)">
    <path id="Path_31" data-name="Path 31" d="M165.307,212.318a4.934,4.934,0,0,0,3.3-2.31,5.24,5.24,0,0,0,.8-2.859,4.75,4.75,0,0,0-.7-2.628,3.994,3.994,0,0,0-2.071-1.581A4.287,4.287,0,0,0,168,201.916a3.99,3.99,0,0,0,.83-2.64,4.554,4.554,0,0,0-.823-2.736q-1.366-1.861-4.646-1.909h-8.667v17.93h8.08A12.475,12.475,0,0,0,165.307,212.318Zm-7.037-14.573h3.9a6.742,6.742,0,0,1,2.119.28,1.6,1.6,0,0,1,.963,1.654,1.693,1.693,0,0,1-.729,1.576,3.6,3.6,0,0,1-1.9.444H158.27Zm0,11.7v-4.781h4.412a4.528,4.528,0,0,1,1.794.3,1.925,1.925,0,0,1,1.141,1.922,2.259,2.259,0,0,1-1.179,2.239,4.215,4.215,0,0,1-1.814.316Z" transform="translate(-154.693 -194.631)" fill="#fff"/>
    <g id="Group_16" data-name="Group 16" transform="translate(15.721 1.03)">
      <path id="Path_32" data-name="Path 32" d="M168.4,210.271a7.223,7.223,0,0,0,4.671,1.632,6.438,6.438,0,0,0,4.988-1.935,4.337,4.337,0,0,0,1.286-2.4H175.8a2.9,2.9,0,0,1-.715.912,2.935,2.935,0,0,1-1.924.608,3.517,3.517,0,0,1-1.911-.5,3.18,3.18,0,0,1-1.387-2.8h9.656a17,17,0,0,0-.113-2.632,6.514,6.514,0,0,0-1.056-2.741,5.381,5.381,0,0,0-2.292-1.961,7.541,7.541,0,0,0-3.119-.622,6.393,6.393,0,0,0-4.741,1.839,7.175,7.175,0,0,0-1.827,5.283Q166.376,208.64,168.4,210.271Zm2.477-8.815a2.75,2.75,0,0,1,2.068-.756,3.04,3.04,0,0,1,2.057.715,2.892,2.892,0,0,1,.924,2.1h-5.974A3.6,3.6,0,0,1,170.877,201.456Z" transform="translate(-166.376 -194.552)" fill="#fff"/>
      <rect id="Rectangle_1472" data-name="Rectangle 1472" width="7.793" height="1.81" transform="translate(2.447)" fill="#fff"/>
    </g>
  </g>
</svg>
