<svg xmlns="http://www.w3.org/2000/svg" xmlns:xlink="http://www.w3.org/1999/xlink" width="1085" height="398" viewBox="0 0 1085 398">
  <defs>
    <filter id="Rectangle_1478" x="0" y="0" width="1085" height="398" filterUnits="userSpaceOnUse">
      <feOffset dx="23" dy="20" input="SourceAlpha"/>
      <feGaussianBlur stdDeviation="9.5" result="blur"/>
      <feFlood flood-color="#f709ff"/>
      <feComposite operator="in" in2="blur"/>
      <feComposite in="SourceGraphic"/>
    </filter>
  </defs>
  <g id="Group_882" data-name="Group 882" transform="translate(-501.5 -2503.5)">
    <g transform="matrix(1, 0, 0, 1, 501.5, 2503.5)" filter="url(#Rectangle_1478)">
      <rect id="Rectangle_1478-2" data-name="Rectangle 1478" width="1028" height="341" transform="translate(5.5 8.5)" fill="#fff"/>
    </g>
    <path id="Path_697" data-name="Path 697" d="M16.33,65.7H32.518V75H4.189V24.8H16.33Zm52.966.142H50.481L47.357,75H34.577L52.966,25.158H66.953L85.342,75H72.42Zm-3.124-9.23-6.248-18.46L53.6,56.611ZM134.687,75H122.546L102.24,44.186V75H90.1V24.8H102.24l20.306,31.1V24.8h12.141Zm31.95-50.694q9.443,0,15.549,4.615a19.661,19.661,0,0,1,7.6,12.5H176.932a9.909,9.909,0,0,0-3.9-4.3,11.935,11.935,0,0,0-6.319-1.6,11.809,11.809,0,0,0-9.23,3.87Q154,43.263,154,49.866q0,7.171,3.656,11.005t10.4,3.834a12.294,12.294,0,0,0,12.212-9.159H164.933V46.813h25.489v12a24.478,24.478,0,0,1-4.544,8.165,23.394,23.394,0,0,1-7.988,6.106,25.3,25.3,0,0,1-11.111,2.343A26.4,26.4,0,0,1,153.5,72.2a22.13,22.13,0,0,1-8.769-9.053,27.9,27.9,0,0,1-3.089-13.277,27.9,27.9,0,0,1,3.089-13.277,22.194,22.194,0,0,1,8.733-9.053A26.054,26.054,0,0,1,166.637,24.306Zm42.458.5V53.771q0,4.97,2.236,7.6a9.346,9.346,0,0,0,12.993,0q2.236-2.627,2.236-7.6V24.8H238.7V53.771a23.856,23.856,0,0,1-2.769,11.964,18,18,0,0,1-7.561,7.313,23.448,23.448,0,0,1-10.828,2.45,22.647,22.647,0,0,1-10.65-2.414,17.145,17.145,0,0,1-7.242-7.313,25.119,25.119,0,0,1-2.627-12V24.8Zm68.87,41.038H259.15L256.026,75h-12.78l18.389-49.842h13.987L294.011,75H281.089Zm-3.124-9.23-6.248-18.46-6.319,18.46Zm47.428-32.305q9.443,0,15.549,4.615a19.661,19.661,0,0,1,7.6,12.5H332.564a9.909,9.909,0,0,0-3.905-4.3,11.935,11.935,0,0,0-6.319-1.6,11.809,11.809,0,0,0-9.23,3.87q-3.479,3.87-3.479,10.472,0,7.171,3.656,11.005t10.4,3.834A12.294,12.294,0,0,0,335.9,55.546H320.565V46.813h25.489v12a24.479,24.479,0,0,1-4.544,8.165,23.394,23.394,0,0,1-7.987,6.106,25.3,25.3,0,0,1-11.112,2.343,26.4,26.4,0,0,1-13.277-3.23,22.13,22.13,0,0,1-8.768-9.053,27.9,27.9,0,0,1-3.089-13.277,27.9,27.9,0,0,1,3.089-13.277,22.194,22.194,0,0,1,8.733-9.053A26.054,26.054,0,0,1,322.269,24.306Zm42.813,10.153V44.967h16.969v9.159H365.082V65.273h19.1V75h-31.24V24.8h31.24v9.656Zm62.125,26.412a13.839,13.839,0,0,1-2.024,7.313,14.271,14.271,0,0,1-5.964,5.325A21.013,21.013,0,0,1,409.67,75.5q-8.449,0-13.916-4.118a14.921,14.921,0,0,1-5.964-11.5h12.922a6.82,6.82,0,0,0,2.023,4.473,6.225,6.225,0,0,0,4.438,1.633,5.15,5.15,0,0,0,3.692-1.278,4.474,4.474,0,0,0,1.349-3.408,4.4,4.4,0,0,0-1.242-3.2,9.742,9.742,0,0,0-3.089-2.094q-1.846-.817-5.112-1.952A62.761,62.761,0,0,1,397,50.9a14.318,14.318,0,0,1-5.183-4.544,13.15,13.15,0,0,1-2.165-7.845,13.21,13.21,0,0,1,2.272-7.739,14.442,14.442,0,0,1,6.284-5.006,22.918,22.918,0,0,1,9.194-1.74q8.378,0,13.313,3.976a15.171,15.171,0,0,1,5.573,10.934H413.149a6.736,6.736,0,0,0-1.811-3.941,5.325,5.325,0,0,0-3.94-1.456,5.077,5.077,0,0,0-3.443,1.136,4.172,4.172,0,0,0-1.314,3.337,4.238,4.238,0,0,0,1.171,3.018,8.928,8.928,0,0,0,2.947,2.023q1.775.781,5.112,1.988a56.19,56.19,0,0,1,7.881,3.231,15.076,15.076,0,0,1,5.254,4.65A13.286,13.286,0,0,1,427.207,60.871Z" transform="translate(562 2531)"/>
    <path id="Path_698" data-name="Path 698" d="M18.684,31.412a6.758,6.758,0,0,1-.864,3.348,6.5,6.5,0,0,1-2.628,2.52,8.925,8.925,0,0,1-4.356.972,10.459,10.459,0,0,1-4.482-.918,7.974,7.974,0,0,1-3.132-2.52,7.13,7.13,0,0,1-1.35-3.654H5.364a4.953,4.953,0,0,0,2.538,3.8,5.627,5.627,0,0,0,2.826.666,4.483,4.483,0,0,0,3.312-1.152,4,4,0,0,0,1.152-2.952,3.8,3.8,0,0,0-.81-2.52,5.739,5.739,0,0,0-2-1.53,27.153,27.153,0,0,0-3.24-1.206,32.767,32.767,0,0,1-3.87-1.494A6.607,6.607,0,0,1,2.79,22.664a6.142,6.142,0,0,1-1.026-3.708,6.4,6.4,0,0,1,.954-3.492,6.254,6.254,0,0,1,2.736-2.34A9.869,9.869,0,0,1,9.648,12.3a9.03,9.03,0,0,1,5.94,1.818,6.957,6.957,0,0,1,2.556,4.626H14.616a4.772,4.772,0,0,0-1.548-2.664,4.875,4.875,0,0,0-3.42-1.152A4.678,4.678,0,0,0,6.48,15.95a3.623,3.623,0,0,0-1.188,2.9,3.588,3.588,0,0,0,.774,2.394,5.387,5.387,0,0,0,1.926,1.44,31,31,0,0,0,3.168,1.17A32.131,32.131,0,0,1,15.1,25.364a6.659,6.659,0,0,1,2.538,2.178A6.511,6.511,0,0,1,18.684,31.412Zm9.36-20.052V38H24.768V11.36Zm15.912,6.624a10.485,10.485,0,0,1,5.094,1.224,8.759,8.759,0,0,1,3.528,3.528,10.956,10.956,0,0,1,1.278,5.4,10.853,10.853,0,0,1-1.278,5.382,8.789,8.789,0,0,1-3.528,3.51,11.212,11.212,0,0,1-10.188,0,8.907,8.907,0,0,1-3.546-3.51,10.732,10.732,0,0,1-1.3-5.382,10.833,10.833,0,0,1,1.3-5.4,8.876,8.876,0,0,1,3.546-3.528A10.485,10.485,0,0,1,43.956,17.984Zm0,2.88a6.848,6.848,0,0,0-3.258.792,5.955,5.955,0,0,0-2.412,2.43,8.184,8.184,0,0,0-.918,4.05,8.1,8.1,0,0,0,.918,4.014A5.954,5.954,0,0,0,40.7,34.58a7.1,7.1,0,0,0,6.516,0,5.954,5.954,0,0,0,2.412-2.43,8.1,8.1,0,0,0,.918-4.014,8.185,8.185,0,0,0-.918-4.05,5.954,5.954,0,0,0-2.412-2.43A6.848,6.848,0,0,0,43.956,20.864ZM67.5,34.508l6.12-16.272h3.528L69.408,38H65.52L57.78,18.236h3.528ZM90.144,17.984a8.121,8.121,0,0,1,4.878,1.44,7.505,7.505,0,0,1,2.79,3.852v-5.04h3.276V38H97.812V32.96a7.505,7.505,0,0,1-2.79,3.852,8.121,8.121,0,0,1-4.878,1.44,8.959,8.959,0,0,1-4.68-1.224,8.466,8.466,0,0,1-3.222-3.51,11.668,11.668,0,0,1-1.17-5.382,11.78,11.78,0,0,1,1.17-5.4,8.443,8.443,0,0,1,3.222-3.528A8.958,8.958,0,0,1,90.144,17.984ZM91.08,20.9a6.345,6.345,0,0,0-4.842,1.926,7.426,7.426,0,0,0-1.818,5.31,7.426,7.426,0,0,0,1.818,5.31,6.345,6.345,0,0,0,4.842,1.926,6.722,6.722,0,0,0,3.474-.9,6.266,6.266,0,0,0,2.394-2.538,8.023,8.023,0,0,0,.864-3.8,8.131,8.131,0,0,0-.864-3.816,6.119,6.119,0,0,0-2.394-2.538A6.829,6.829,0,0,0,91.08,20.9ZM118.836,38l-7.56-8.892V38H108V11.36h3.276V26.84l7.452-8.6h4l-8.856,9.828L122.94,38Zm22.536-26.64V38H138.1V11.36Zm15.048,6.624a8.121,8.121,0,0,1,4.878,1.44,7.5,7.5,0,0,1,2.79,3.852v-5.04h3.276V38h-3.276V32.96a7.5,7.5,0,0,1-2.79,3.852,8.121,8.121,0,0,1-4.878,1.44,8.958,8.958,0,0,1-4.68-1.224,8.466,8.466,0,0,1-3.222-3.51,11.668,11.668,0,0,1-1.17-5.382,11.78,11.78,0,0,1,1.17-5.4,8.442,8.442,0,0,1,3.222-3.528A8.958,8.958,0,0,1,156.42,17.984Zm.936,2.916a6.345,6.345,0,0,0-4.842,1.926,7.426,7.426,0,0,0-1.818,5.31,7.426,7.426,0,0,0,1.818,5.31,6.345,6.345,0,0,0,4.842,1.926,6.722,6.722,0,0,0,3.474-.9,6.266,6.266,0,0,0,2.394-2.538,8.023,8.023,0,0,0,.864-3.8,8.131,8.131,0,0,0-.864-3.816,6.119,6.119,0,0,0-2.394-2.538A6.829,6.829,0,0,0,157.356,20.9Zm27.324-2.988a7.379,7.379,0,0,1,5.58,2.214q2.124,2.214,2.124,6.39V38h-3.276V26.8a6.314,6.314,0,0,0-1.512-4.536,5.405,5.405,0,0,0-4.1-1.584,5.611,5.611,0,0,0-4.32,1.746,7.232,7.232,0,0,0-1.62,5.094V38h-3.276V18.236h3.276v4.68a6.733,6.733,0,0,1,2.682-3.708A7.775,7.775,0,0,1,184.68,17.912Zm22.536.072a8.121,8.121,0,0,1,4.878,1.44,7.5,7.5,0,0,1,2.79,3.852v-5.04h3.276V38.324a10.03,10.03,0,0,1-1.152,4.86,8.275,8.275,0,0,1-3.24,3.312,9.658,9.658,0,0,1-4.86,1.188,10.433,10.433,0,0,1-6.516-1.926,8.5,8.5,0,0,1-3.2-5.2h3.24a5.611,5.611,0,0,0,2.178,3.114,6.972,6.972,0,0,0,4.122,1.134,6.045,6.045,0,0,0,4.41-1.71,6.371,6.371,0,0,0,1.746-4.77V32.96a7.5,7.5,0,0,1-2.79,3.852,8.121,8.121,0,0,1-4.878,1.44,8.958,8.958,0,0,1-4.68-1.224,8.466,8.466,0,0,1-3.222-3.51,11.668,11.668,0,0,1-1.17-5.382,11.78,11.78,0,0,1,1.17-5.4,8.442,8.442,0,0,1,3.222-3.528A8.958,8.958,0,0,1,207.216,17.984Zm.936,2.916a6.345,6.345,0,0,0-4.842,1.926,7.426,7.426,0,0,0-1.818,5.31,7.426,7.426,0,0,0,1.818,5.31,6.345,6.345,0,0,0,4.842,1.926,6.722,6.722,0,0,0,3.474-.9,6.266,6.266,0,0,0,2.394-2.538,8.023,8.023,0,0,0,.864-3.8,8.131,8.131,0,0,0-.864-3.816,6.119,6.119,0,0,0-2.394-2.538A6.829,6.829,0,0,0,208.152,20.9Zm34.488-2.664V38h-3.276V33.356a6.648,6.648,0,0,1-2.682,3.69,7.918,7.918,0,0,1-4.482,1.278,7.335,7.335,0,0,1-5.544-2.214,8.819,8.819,0,0,1-2.124-6.354V18.236h3.276v11.2a6.38,6.38,0,0,0,1.512,4.554,5.373,5.373,0,0,0,4.1,1.6,5.611,5.611,0,0,0,4.32-1.746,7.232,7.232,0,0,0,1.62-5.094V18.236Zm15.048-.252a8.121,8.121,0,0,1,4.878,1.44,7.5,7.5,0,0,1,2.79,3.852v-5.04h3.276V38h-3.276V32.96a7.5,7.5,0,0,1-2.79,3.852,8.121,8.121,0,0,1-4.878,1.44,8.958,8.958,0,0,1-4.68-1.224,8.466,8.466,0,0,1-3.222-3.51,11.668,11.668,0,0,1-1.17-5.382,11.78,11.78,0,0,1,1.17-5.4,8.442,8.442,0,0,1,3.222-3.528A8.958,8.958,0,0,1,257.688,17.984Zm.936,2.916a6.345,6.345,0,0,0-4.842,1.926,7.426,7.426,0,0,0-1.818,5.31,7.426,7.426,0,0,0,1.818,5.31,6.345,6.345,0,0,0,4.842,1.926,6.722,6.722,0,0,0,3.474-.9,6.266,6.266,0,0,0,2.394-2.538,8.023,8.023,0,0,0,.864-3.8,8.131,8.131,0,0,0-.864-3.816,6.119,6.119,0,0,0-2.394-2.538A6.829,6.829,0,0,0,258.624,20.9Zm25.02-2.916a8.121,8.121,0,0,1,4.878,1.44,7.5,7.5,0,0,1,2.79,3.852v-5.04h3.276V38.324a10.03,10.03,0,0,1-1.152,4.86A8.274,8.274,0,0,1,290.2,46.5a9.658,9.658,0,0,1-4.86,1.188,10.434,10.434,0,0,1-6.516-1.926,8.5,8.5,0,0,1-3.2-5.2h3.24a5.611,5.611,0,0,0,2.178,3.114,6.972,6.972,0,0,0,4.122,1.134,6.045,6.045,0,0,0,4.41-1.71,6.371,6.371,0,0,0,1.746-4.77V32.96a7.5,7.5,0,0,1-2.79,3.852,8.121,8.121,0,0,1-4.878,1.44,8.959,8.959,0,0,1-4.68-1.224,8.466,8.466,0,0,1-3.222-3.51,11.668,11.668,0,0,1-1.17-5.382,11.78,11.78,0,0,1,1.17-5.4,8.442,8.442,0,0,1,3.222-3.528A8.959,8.959,0,0,1,283.644,17.984Zm.936,2.916a6.345,6.345,0,0,0-4.842,1.926,7.426,7.426,0,0,0-1.818,5.31,7.426,7.426,0,0,0,1.818,5.31,6.345,6.345,0,0,0,4.842,1.926,6.722,6.722,0,0,0,3.474-.9,6.266,6.266,0,0,0,2.394-2.538,8.023,8.023,0,0,0,.864-3.8,8.131,8.131,0,0,0-.864-3.816,6.119,6.119,0,0,0-2.394-2.538A6.829,6.829,0,0,0,284.58,20.9Zm35.1,6.12a9.755,9.755,0,0,1-.144,1.8h-15.8a6.927,6.927,0,0,0,1.926,5.076,6.285,6.285,0,0,0,4.446,1.692,6.426,6.426,0,0,0,3.978-1.206,4.986,4.986,0,0,0,1.962-3.222h3.492a8.252,8.252,0,0,1-4.824,6.192,10.671,10.671,0,0,1-4.464.9,10.177,10.177,0,0,1-5.04-1.224,8.65,8.65,0,0,1-3.438-3.51,11.107,11.107,0,0,1-1.242-5.382,11.213,11.213,0,0,1,1.242-5.4,8.622,8.622,0,0,1,3.438-3.528,10.177,10.177,0,0,1,5.04-1.224,9.949,9.949,0,0,1,5.022,1.224,8.427,8.427,0,0,1,3.276,3.276A9.221,9.221,0,0,1,319.68,27.02Zm-3.312.216a6.724,6.724,0,0,0-.72-3.672,5.264,5.264,0,0,0-2.268-2.2,6.9,6.9,0,0,0-3.132-.72,6.482,6.482,0,0,0-4.536,1.674,6.747,6.747,0,0,0-1.98,4.914ZM5.9,72.284V80.96h9.648v2.52H5.9v8.856H16.632V95h-14V69.62h14v2.664ZM32.94,74.912a7.379,7.379,0,0,1,5.58,2.214q2.124,2.214,2.124,6.39V95H37.368V83.8a6.314,6.314,0,0,0-1.512-4.536,5.405,5.405,0,0,0-4.1-1.584,5.611,5.611,0,0,0-4.32,1.746,7.232,7.232,0,0,0-1.62,5.094V95H22.536V75.236h3.276v4.68a6.733,6.733,0,0,1,2.682-3.708A7.775,7.775,0,0,1,32.94,74.912Zm22.536.072a8.121,8.121,0,0,1,4.878,1.44,7.5,7.5,0,0,1,2.79,3.852v-5.04H66.42V95.324a10.03,10.03,0,0,1-1.152,4.86,8.275,8.275,0,0,1-3.24,3.312,9.658,9.658,0,0,1-4.86,1.188,10.434,10.434,0,0,1-6.516-1.926,8.5,8.5,0,0,1-3.2-5.2h3.24a5.611,5.611,0,0,0,2.178,3.114,6.972,6.972,0,0,0,4.122,1.134,6.045,6.045,0,0,0,4.41-1.71,6.371,6.371,0,0,0,1.746-4.77V89.96a7.5,7.5,0,0,1-2.79,3.852,8.121,8.121,0,0,1-4.878,1.44,8.958,8.958,0,0,1-4.68-1.224,8.466,8.466,0,0,1-3.222-3.51,13.005,13.005,0,0,1,0-10.782A8.442,8.442,0,0,1,50.8,76.208,8.958,8.958,0,0,1,55.476,74.984Zm.936,2.916a6.345,6.345,0,0,0-4.842,1.926,7.426,7.426,0,0,0-1.818,5.31,7.426,7.426,0,0,0,1.818,5.31,6.345,6.345,0,0,0,4.842,1.926,6.722,6.722,0,0,0,3.474-.9,6.265,6.265,0,0,0,2.394-2.538,8.023,8.023,0,0,0,.864-3.8,8.131,8.131,0,0,0-.864-3.816,6.119,6.119,0,0,0-2.394-2.538A6.829,6.829,0,0,0,56.412,77.9Zm20.2-9.54V95H73.332V68.36Zm6.372,1.08a1.881,1.881,0,0,1,.612-1.458,2.631,2.631,0,0,1,3.24,0,2.043,2.043,0,0,1,0,2.916,2.631,2.631,0,0,1-3.24,0A1.881,1.881,0,0,1,82.98,69.44Zm3.852,5.8V95H83.556V75.236Zm13.14-.252a7.977,7.977,0,0,1,5.382,1.746,7.354,7.354,0,0,1,2.466,4.7h-3.132a4.535,4.535,0,0,0-1.458-2.9A4.748,4.748,0,0,0,99.9,77.4a4.108,4.108,0,0,0-2.754.846,2.852,2.852,0,0,0-.99,2.286,2.361,2.361,0,0,0,.666,1.746,4.273,4.273,0,0,0,1.656,1.008,27.624,27.624,0,0,0,2.718.738,26.7,26.7,0,0,1,3.546,1.026,5.555,5.555,0,0,1,2.3,1.674,4.7,4.7,0,0,1,.954,3.1,4.865,4.865,0,0,1-1.818,3.924,7.33,7.33,0,0,1-4.842,1.512,9.275,9.275,0,0,1-5.76-1.692,6.749,6.749,0,0,1-2.628-4.716H96.12a4.125,4.125,0,0,0,1.566,2.916,5.65,5.65,0,0,0,3.654,1.116,3.8,3.8,0,0,0,2.646-.864,2.915,2.915,0,0,0,.954-2.268,2.481,2.481,0,0,0-.684-1.836,4.485,4.485,0,0,0-1.692-1.044,24.747,24.747,0,0,0-2.772-.756,27.053,27.053,0,0,1-3.51-1.008,5.379,5.379,0,0,1-2.232-1.6,4.485,4.485,0,0,1-.918-2.97,4.972,4.972,0,0,1,1.836-4.014A7.578,7.578,0,0,1,99.972,74.984Zm24.516-.072a7.379,7.379,0,0,1,5.58,2.214q2.124,2.214,2.124,6.39V95h-3.276V83.8a6.314,6.314,0,0,0-1.512-4.536,5.405,5.405,0,0,0-4.1-1.584,5.611,5.611,0,0,0-4.32,1.746,7.232,7.232,0,0,0-1.62,5.094V95h-3.276V68.36h3.276V79.916a6.733,6.733,0,0,1,2.682-3.708A7.775,7.775,0,0,1,124.488,74.912Zm28.3-6.552V95h-3.276V68.36Zm15.048,6.624a8.121,8.121,0,0,1,4.878,1.44,7.5,7.5,0,0,1,2.79,3.852v-5.04h3.276V95H175.5V89.96a7.5,7.5,0,0,1-2.79,3.852,8.121,8.121,0,0,1-4.878,1.44,8.958,8.958,0,0,1-4.68-1.224,8.466,8.466,0,0,1-3.222-3.51,13.005,13.005,0,0,1,0-10.782,8.442,8.442,0,0,1,3.222-3.528A8.958,8.958,0,0,1,167.832,74.984Zm.936,2.916a6.345,6.345,0,0,0-4.842,1.926,7.426,7.426,0,0,0-1.818,5.31,7.426,7.426,0,0,0,1.818,5.31,6.345,6.345,0,0,0,4.842,1.926,6.722,6.722,0,0,0,3.474-.9,6.265,6.265,0,0,0,2.394-2.538,8.023,8.023,0,0,0,.864-3.8,8.131,8.131,0,0,0-.864-3.816,6.119,6.119,0,0,0-2.394-2.538A6.829,6.829,0,0,0,168.768,77.9Zm27.324-2.988a7.379,7.379,0,0,1,5.58,2.214q2.124,2.214,2.124,6.39V95H200.52V83.8a6.314,6.314,0,0,0-1.512-4.536,5.405,5.405,0,0,0-4.1-1.584,5.611,5.611,0,0,0-4.32,1.746,7.232,7.232,0,0,0-1.62,5.094V95h-3.276V75.236h3.276v4.68a6.733,6.733,0,0,1,2.682-3.708A7.775,7.775,0,0,1,196.092,74.912Zm22.536.072a8.121,8.121,0,0,1,4.878,1.44,7.5,7.5,0,0,1,2.79,3.852v-5.04h3.276V95.324a10.031,10.031,0,0,1-1.152,4.86,8.275,8.275,0,0,1-3.24,3.312,9.658,9.658,0,0,1-4.86,1.188,10.434,10.434,0,0,1-6.516-1.926,8.5,8.5,0,0,1-3.2-5.2h3.24a5.611,5.611,0,0,0,2.178,3.114,6.972,6.972,0,0,0,4.122,1.134,6.045,6.045,0,0,0,4.41-1.71,6.371,6.371,0,0,0,1.746-4.77V89.96a7.5,7.5,0,0,1-2.79,3.852,8.121,8.121,0,0,1-4.878,1.44,8.958,8.958,0,0,1-4.68-1.224,8.466,8.466,0,0,1-3.222-3.51,13.005,13.005,0,0,1,0-10.782,8.442,8.442,0,0,1,3.222-3.528A8.958,8.958,0,0,1,218.628,74.984Zm.936,2.916a6.345,6.345,0,0,0-4.842,1.926,7.426,7.426,0,0,0-1.818,5.31,7.426,7.426,0,0,0,1.818,5.31,6.345,6.345,0,0,0,4.842,1.926,6.722,6.722,0,0,0,3.474-.9,6.265,6.265,0,0,0,2.394-2.538,8.023,8.023,0,0,0,.864-3.8,8.131,8.131,0,0,0-.864-3.816,6.119,6.119,0,0,0-2.394-2.538A6.829,6.829,0,0,0,219.564,77.9Zm25.02-2.916a8.121,8.121,0,0,1,4.878,1.44,7.5,7.5,0,0,1,2.79,3.852v-5.04h3.276V95h-3.276V89.96a7.5,7.5,0,0,1-2.79,3.852,8.121,8.121,0,0,1-4.878,1.44,8.958,8.958,0,0,1-4.68-1.224,8.466,8.466,0,0,1-3.222-3.51,13.005,13.005,0,0,1,0-10.782,8.442,8.442,0,0,1,3.222-3.528A8.958,8.958,0,0,1,244.584,74.984Zm.936,2.916a6.345,6.345,0,0,0-4.842,1.926,7.426,7.426,0,0,0-1.818,5.31,7.426,7.426,0,0,0,1.818,5.31,6.345,6.345,0,0,0,4.842,1.926,6.722,6.722,0,0,0,3.474-.9,6.265,6.265,0,0,0,2.394-2.538,8.023,8.023,0,0,0,.864-3.8,8.131,8.131,0,0,0-.864-3.816,6.119,6.119,0,0,0-2.394-2.538A6.829,6.829,0,0,0,245.52,77.9Zm34.488-2.664V95h-3.276V90.356a6.648,6.648,0,0,1-2.682,3.69,7.918,7.918,0,0,1-4.482,1.278,7.335,7.335,0,0,1-5.544-2.214,8.819,8.819,0,0,1-2.124-6.354V75.236h3.276v11.2a6.381,6.381,0,0,0,1.512,4.554,5.373,5.373,0,0,0,4.1,1.6,5.611,5.611,0,0,0,4.32-1.746,7.232,7.232,0,0,0,1.62-5.094V75.236Zm15.048-.252a8.121,8.121,0,0,1,4.878,1.44,7.5,7.5,0,0,1,2.79,3.852v-5.04H306V95h-3.276V89.96a7.5,7.5,0,0,1-2.79,3.852,8.121,8.121,0,0,1-4.878,1.44,8.958,8.958,0,0,1-4.68-1.224,8.466,8.466,0,0,1-3.222-3.51,13.005,13.005,0,0,1,0-10.782,8.442,8.442,0,0,1,3.222-3.528A8.959,8.959,0,0,1,295.056,74.984Zm.936,2.916a6.345,6.345,0,0,0-4.842,1.926,7.426,7.426,0,0,0-1.818,5.31,7.426,7.426,0,0,0,1.818,5.31,6.345,6.345,0,0,0,4.842,1.926,6.722,6.722,0,0,0,3.474-.9,6.266,6.266,0,0,0,2.394-2.538,8.023,8.023,0,0,0,.864-3.8,8.131,8.131,0,0,0-.864-3.816,6.119,6.119,0,0,0-2.394-2.538A6.829,6.829,0,0,0,295.992,77.9Zm25.02-2.916a8.121,8.121,0,0,1,4.878,1.44,7.5,7.5,0,0,1,2.79,3.852v-5.04h3.276V95.324a10.03,10.03,0,0,1-1.152,4.86,8.274,8.274,0,0,1-3.24,3.312,9.658,9.658,0,0,1-4.86,1.188,10.434,10.434,0,0,1-6.516-1.926,8.5,8.5,0,0,1-3.2-5.2h3.24a5.611,5.611,0,0,0,2.178,3.114,6.972,6.972,0,0,0,4.122,1.134,6.045,6.045,0,0,0,4.41-1.71,6.371,6.371,0,0,0,1.746-4.77V89.96a7.5,7.5,0,0,1-2.79,3.852,8.121,8.121,0,0,1-4.878,1.44,8.958,8.958,0,0,1-4.68-1.224,8.466,8.466,0,0,1-3.222-3.51,13.005,13.005,0,0,1,0-10.782,8.442,8.442,0,0,1,3.222-3.528A8.959,8.959,0,0,1,321.012,74.984Zm.936,2.916a6.345,6.345,0,0,0-4.842,1.926,7.426,7.426,0,0,0-1.818,5.31,7.426,7.426,0,0,0,1.818,5.31,6.345,6.345,0,0,0,4.842,1.926,6.722,6.722,0,0,0,3.474-.9,6.266,6.266,0,0,0,2.394-2.538,8.023,8.023,0,0,0,.864-3.8,8.131,8.131,0,0,0-.864-3.816,6.119,6.119,0,0,0-2.394-2.538A6.829,6.829,0,0,0,321.948,77.9Zm35.1,6.12a9.755,9.755,0,0,1-.144,1.8H341.1a6.927,6.927,0,0,0,1.926,5.076,6.285,6.285,0,0,0,4.446,1.692,6.426,6.426,0,0,0,3.978-1.206,4.986,4.986,0,0,0,1.962-3.222H356.9a8.252,8.252,0,0,1-4.824,6.192,10.671,10.671,0,0,1-4.464.9,10.177,10.177,0,0,1-5.04-1.224,8.649,8.649,0,0,1-3.438-3.51,12.321,12.321,0,0,1,0-10.782,8.622,8.622,0,0,1,3.438-3.528,10.177,10.177,0,0,1,5.04-1.224,9.949,9.949,0,0,1,5.022,1.224,8.427,8.427,0,0,1,3.276,3.276A9.22,9.22,0,0,1,357.048,84.02Zm-3.312.216a6.724,6.724,0,0,0-.72-3.672,5.264,5.264,0,0,0-2.268-2.2,6.9,6.9,0,0,0-3.132-.72,6.482,6.482,0,0,0-4.536,1.674,6.747,6.747,0,0,0-1.98,4.914ZM14.148,126.368a12.262,12.262,0,0,1,7.434,2.2,10.682,10.682,0,0,1,4.05,5.976H22.176a7.765,7.765,0,0,0-3.006-3.708,8.778,8.778,0,0,0-4.986-1.4,8.992,8.992,0,0,0-4.644,1.206,8.419,8.419,0,0,0-3.222,3.438,11.171,11.171,0,0,0-1.17,5.256,11.3,11.3,0,0,0,1.188,5.346A8.4,8.4,0,0,0,9.63,148.13a9.57,9.57,0,0,0,4.842,1.206,9.166,9.166,0,0,0,4.284-1.008,8.293,8.293,0,0,0,3.186-2.934,9.986,9.986,0,0,0,1.494-4.518H13.464v-2.448H26.208v3.024a12.6,12.6,0,0,1-1.872,5.472,11.229,11.229,0,0,1-4.176,3.888,12.23,12.23,0,0,1-5.976,1.44,12.623,12.623,0,0,1-6.48-1.638,11.386,11.386,0,0,1-4.374-4.572,15.176,15.176,0,0,1,0-13.428,11.509,11.509,0,0,1,4.374-4.59A12.445,12.445,0,0,1,14.148,126.368Zm36.36,14.652a9.755,9.755,0,0,1-.144,1.8H34.56a6.927,6.927,0,0,0,1.926,5.076,6.285,6.285,0,0,0,4.446,1.692,6.426,6.426,0,0,0,3.978-1.206,4.986,4.986,0,0,0,1.962-3.222h3.492a8.252,8.252,0,0,1-4.824,6.192,10.671,10.671,0,0,1-4.464.9,10.177,10.177,0,0,1-5.04-1.224,8.649,8.649,0,0,1-3.438-3.51,12.321,12.321,0,0,1,0-10.782,8.622,8.622,0,0,1,3.438-3.528,10.177,10.177,0,0,1,5.04-1.224,9.949,9.949,0,0,1,5.022,1.224,8.427,8.427,0,0,1,3.276,3.276A9.22,9.22,0,0,1,50.508,141.02Zm-3.312.216a6.724,6.724,0,0,0-.72-3.672,5.264,5.264,0,0,0-2.268-2.2,6.9,6.9,0,0,0-3.132-.72,6.482,6.482,0,0,0-4.536,1.674,6.747,6.747,0,0,0-1.98,4.914Zm12.564-5a7.269,7.269,0,0,1,2.844-3.186,8.453,8.453,0,0,1,4.464-1.134v3.564H66.06a7,7,0,0,0-4.536,1.422q-1.764,1.422-1.764,4.7V152H56.484V132.236H59.76Zm36.54-4.32a7.321,7.321,0,0,1,5.562,2.214q2.106,2.214,2.106,6.39V152h-3.276V140.8a6.371,6.371,0,0,0-1.422-4.464,5.04,5.04,0,0,0-3.906-1.548,5.367,5.367,0,0,0-4.158,1.71,7.2,7.2,0,0,0-1.566,5.022V152H86.364V140.8a6.32,6.32,0,0,0-1.44-4.464,5.053,5.053,0,0,0-3.888-1.548,5.41,5.41,0,0,0-4.194,1.71,7.2,7.2,0,0,0-1.566,5.022V152H72V132.236h3.276v4.5a6.421,6.421,0,0,1,2.574-3.582,8.036,8.036,0,0,1,8.64.036,6.954,6.954,0,0,1,2.646,3.762,7.144,7.144,0,0,1,2.772-3.726A7.663,7.663,0,0,1,96.3,131.912Zm22.536.072a8.121,8.121,0,0,1,4.878,1.44,7.505,7.505,0,0,1,2.79,3.852v-5.04h3.276V152H126.5v-5.04a7.505,7.505,0,0,1-2.79,3.852,8.121,8.121,0,0,1-4.878,1.44,8.959,8.959,0,0,1-4.68-1.224,8.466,8.466,0,0,1-3.222-3.51,13.005,13.005,0,0,1,0-10.782,8.442,8.442,0,0,1,3.222-3.528A8.958,8.958,0,0,1,118.836,131.984Zm.936,2.916a6.345,6.345,0,0,0-4.842,1.926,8.664,8.664,0,0,0,0,10.62,6.345,6.345,0,0,0,4.842,1.926,6.722,6.722,0,0,0,3.474-.9,6.266,6.266,0,0,0,2.394-2.538,8.023,8.023,0,0,0,.864-3.8,8.131,8.131,0,0,0-.864-3.816,6.119,6.119,0,0,0-2.394-2.538A6.829,6.829,0,0,0,119.772,134.9Zm27.324-2.988a7.379,7.379,0,0,1,5.58,2.214q2.124,2.214,2.124,6.39V152h-3.276V140.8a6.314,6.314,0,0,0-1.512-4.536,5.405,5.405,0,0,0-4.1-1.584,5.611,5.611,0,0,0-4.32,1.746,7.232,7.232,0,0,0-1.62,5.094V152h-3.276V132.236h3.276v4.68a6.733,6.733,0,0,1,2.682-3.708A7.775,7.775,0,0,1,147.1,131.912Zm28.3-6.552V152h-3.276V125.36Zm15.048,6.624a8.121,8.121,0,0,1,4.878,1.44,7.5,7.5,0,0,1,2.79,3.852v-5.04h3.276V152h-3.276v-5.04a7.505,7.505,0,0,1-2.79,3.852,8.121,8.121,0,0,1-4.878,1.44,8.958,8.958,0,0,1-4.68-1.224,8.466,8.466,0,0,1-3.222-3.51,13.005,13.005,0,0,1,0-10.782,8.442,8.442,0,0,1,3.222-3.528A8.958,8.958,0,0,1,190.44,131.984Zm.936,2.916a6.345,6.345,0,0,0-4.842,1.926,8.664,8.664,0,0,0,0,10.62,6.345,6.345,0,0,0,4.842,1.926,6.722,6.722,0,0,0,3.474-.9,6.265,6.265,0,0,0,2.394-2.538,8.023,8.023,0,0,0,.864-3.8,8.131,8.131,0,0,0-.864-3.816,6.119,6.119,0,0,0-2.394-2.538A6.829,6.829,0,0,0,191.376,134.9Zm27.324-2.988a7.379,7.379,0,0,1,5.58,2.214q2.124,2.214,2.124,6.39V152h-3.276V140.8a6.314,6.314,0,0,0-1.512-4.536,5.405,5.405,0,0,0-4.1-1.584,5.611,5.611,0,0,0-4.32,1.746,7.232,7.232,0,0,0-1.62,5.094V152H208.3V132.236h3.276v4.68a6.733,6.733,0,0,1,2.682-3.708A7.775,7.775,0,0,1,218.7,131.912Zm22.536.072a8.121,8.121,0,0,1,4.878,1.44,7.5,7.5,0,0,1,2.79,3.852v-5.04h3.276v20.088a10.031,10.031,0,0,1-1.152,4.86,8.275,8.275,0,0,1-3.24,3.312,9.658,9.658,0,0,1-4.86,1.188,10.433,10.433,0,0,1-6.516-1.926,8.5,8.5,0,0,1-3.2-5.2h3.24a5.611,5.611,0,0,0,2.178,3.114,6.972,6.972,0,0,0,4.122,1.134,6.045,6.045,0,0,0,4.41-1.71,6.371,6.371,0,0,0,1.746-4.77V146.96a7.505,7.505,0,0,1-2.79,3.852,8.121,8.121,0,0,1-4.878,1.44,8.958,8.958,0,0,1-4.68-1.224,8.466,8.466,0,0,1-3.222-3.51,13.005,13.005,0,0,1,0-10.782,8.442,8.442,0,0,1,3.222-3.528A8.958,8.958,0,0,1,241.236,131.984Zm.936,2.916a6.345,6.345,0,0,0-4.842,1.926,8.664,8.664,0,0,0,0,10.62,6.345,6.345,0,0,0,4.842,1.926,6.722,6.722,0,0,0,3.474-.9,6.265,6.265,0,0,0,2.394-2.538,8.023,8.023,0,0,0,.864-3.8,8.131,8.131,0,0,0-.864-3.816,6.119,6.119,0,0,0-2.394-2.538A6.829,6.829,0,0,0,242.172,134.9Zm34.488-2.664V152h-3.276v-4.644a6.648,6.648,0,0,1-2.682,3.69,7.918,7.918,0,0,1-4.482,1.278,7.335,7.335,0,0,1-5.544-2.214,8.819,8.819,0,0,1-2.124-6.354v-11.52h3.276v11.2a6.38,6.38,0,0,0,1.512,4.554,5.373,5.373,0,0,0,4.1,1.6,5.611,5.611,0,0,0,4.32-1.746,7.232,7.232,0,0,0,1.62-5.094V132.236Zm15.048-.252a8.121,8.121,0,0,1,4.878,1.44,7.5,7.5,0,0,1,2.79,3.852v-5.04h3.276V152h-3.276v-5.04a7.5,7.5,0,0,1-2.79,3.852,8.121,8.121,0,0,1-4.878,1.44,8.959,8.959,0,0,1-4.68-1.224,8.466,8.466,0,0,1-3.222-3.51,13.005,13.005,0,0,1,0-10.782,8.442,8.442,0,0,1,3.222-3.528A8.958,8.958,0,0,1,291.708,131.984Zm.936,2.916a6.345,6.345,0,0,0-4.842,1.926,8.664,8.664,0,0,0,0,10.62,6.345,6.345,0,0,0,4.842,1.926,6.722,6.722,0,0,0,3.474-.9,6.266,6.266,0,0,0,2.394-2.538,8.023,8.023,0,0,0,.864-3.8,8.131,8.131,0,0,0-.864-3.816,6.119,6.119,0,0,0-2.394-2.538A6.829,6.829,0,0,0,292.644,134.9Zm25.02-2.916a8.121,8.121,0,0,1,4.878,1.44,7.5,7.5,0,0,1,2.79,3.852v-5.04h3.276v20.088a10.03,10.03,0,0,1-1.152,4.86,8.274,8.274,0,0,1-3.24,3.312,9.658,9.658,0,0,1-4.86,1.188,10.434,10.434,0,0,1-6.516-1.926,8.5,8.5,0,0,1-3.2-5.2h3.24a5.611,5.611,0,0,0,2.178,3.114,6.972,6.972,0,0,0,4.122,1.134,6.045,6.045,0,0,0,4.41-1.71,6.371,6.371,0,0,0,1.746-4.77V146.96a7.5,7.5,0,0,1-2.79,3.852,8.121,8.121,0,0,1-4.878,1.44,8.959,8.959,0,0,1-4.68-1.224,8.466,8.466,0,0,1-3.222-3.51,13.005,13.005,0,0,1,0-10.782,8.442,8.442,0,0,1,3.222-3.528A8.958,8.958,0,0,1,317.664,131.984Zm.936,2.916a6.345,6.345,0,0,0-4.842,1.926,8.664,8.664,0,0,0,0,10.62,6.345,6.345,0,0,0,4.842,1.926,6.722,6.722,0,0,0,3.474-.9,6.266,6.266,0,0,0,2.394-2.538,8.023,8.023,0,0,0,.864-3.8,8.131,8.131,0,0,0-.864-3.816,6.119,6.119,0,0,0-2.394-2.538A6.829,6.829,0,0,0,318.6,134.9Zm35.1,6.12a9.755,9.755,0,0,1-.144,1.8h-15.8a6.927,6.927,0,0,0,1.926,5.076,6.285,6.285,0,0,0,4.446,1.692,6.426,6.426,0,0,0,3.978-1.206,4.986,4.986,0,0,0,1.962-3.222h3.492a8.252,8.252,0,0,1-4.824,6.192,10.671,10.671,0,0,1-4.464.9,10.177,10.177,0,0,1-5.04-1.224,8.65,8.65,0,0,1-3.438-3.51,12.321,12.321,0,0,1,0-10.782,8.622,8.622,0,0,1,3.438-3.528,10.177,10.177,0,0,1,5.04-1.224,9.949,9.949,0,0,1,5.022,1.224,8.427,8.427,0,0,1,3.276,3.276A9.221,9.221,0,0,1,353.7,141.02Zm-3.312.216a6.724,6.724,0,0,0-.72-3.672,5.264,5.264,0,0,0-2.268-2.2,6.9,6.9,0,0,0-3.132-.72,6.482,6.482,0,0,0-4.536,1.674,6.747,6.747,0,0,0-1.98,4.914Z" transform="translate(704 2649)"/>
    <g id="Group_31" data-name="Group 31" transform="translate(-296 915)">
      <circle id="Ellipse_1" data-name="Ellipse 1" cx="12" cy="12" r="12" transform="translate(1434 1746)" fill="#f709ff"/>
      <circle id="Ellipse_2" data-name="Ellipse 2" cx="12" cy="12" r="12" transform="translate(1478 1746)" fill="#f709ff"/>
      <circle id="Ellipse_5" data-name="Ellipse 5" cx="12" cy="12" r="12" transform="translate(1566 1746)" fill="#f709ff"/>
      <circle id="Ellipse_3" data-name="Ellipse 3" cx="12" cy="12" r="12" transform="translate(1522 1746)" fill="#f709ff"/>
      <circle id="Ellipse_4" data-name="Ellipse 4" cx="12" cy="12" r="12" transform="translate(1610 1746)" fill="#f709ff"/>
    </g>
    <g id="Group_33" data-name="Group 33" transform="translate(-296 1029)">
      <circle id="Ellipse_1-2" data-name="Ellipse 1" cx="12" cy="12" r="12" transform="translate(1434 1746)" fill="#f709ff"/>
      <circle id="Ellipse_2-2" data-name="Ellipse 2" cx="12" cy="12" r="12" transform="translate(1478 1746)" fill="#f709ff"/>
      <g id="Ellipse_5-2" data-name="Ellipse 5" transform="translate(1566 1746)" fill="none" stroke="#000" stroke-width="1">
        <circle cx="12" cy="12" r="12" stroke="none"/>
        <circle cx="12" cy="12" r="11.5" fill="none"/>
      </g>
      <g id="Ellipse_3-2" data-name="Ellipse 3" transform="translate(1522 1746)" fill="none" stroke="#000" stroke-width="1">
        <circle cx="12" cy="12" r="12" stroke="none"/>
        <circle cx="12" cy="12" r="11.5" fill="none"/>
      </g>
      <g id="Ellipse_4-2" data-name="Ellipse 4" transform="translate(1610 1746)" fill="none" stroke="#000" stroke-width="1">
        <circle cx="12" cy="12" r="12" stroke="none"/>
        <circle cx="12" cy="12" r="11.5" fill="none"/>
      </g>
    </g>
    <g id="Group_34" data-name="Group 34" transform="translate(-296 972)">
      <circle id="Ellipse_1-3" data-name="Ellipse 1" cx="12" cy="12" r="12" transform="translate(1434 1746)" fill="#f709ff"/>
      <circle id="Ellipse_2-3" data-name="Ellipse 2" cx="12" cy="12" r="12" transform="translate(1478 1746)" fill="#f709ff"/>
      <g id="Ellipse_5-3" data-name="Ellipse 5" transform="translate(1566 1746)" fill="none" stroke="#000" stroke-width="1">
        <circle cx="12" cy="12" r="12" stroke="none"/>
        <circle cx="12" cy="12" r="11.5" fill="none"/>
      </g>
      <circle id="Ellipse_3-3" data-name="Ellipse 3" cx="12" cy="12" r="12" transform="translate(1522 1746)" fill="#f709ff"/>
      <g id="Ellipse_4-3" data-name="Ellipse 4" transform="translate(1610 1746)" fill="none" stroke="#000" stroke-width="1">
        <circle cx="12" cy="12" r="12" stroke="none"/>
        <circle cx="12" cy="12" r="11.5" fill="none"/>
      </g>
    </g>
  </g>
</svg>
