<svg xmlns="http://www.w3.org/2000/svg" width="2151.108" height="512.392" viewBox="0 0 2151.108 512.392">
  <g id="Group_35" data-name="Group 35" transform="translate(3223.167 -1025.09)">
    <g id="Group_5" data-name="Group 5" transform="translate(-2598.404 1130.943)">
      <path id="Path_13" data-name="Path 13" d="M-3198.258,1314.894V1037.555a371.163,371.163,0,0,1,77.18-8.229q70.846,0,106.1,35.54,35.25,35.481,35.234,109.437,0,50.376-16.652,82.272-16.664,31.868-49.887,47.131-33.223,15.2-84,15.224A605.744,605.744,0,0,1-3198.258,1314.894Zm129.18-47.209q19.219-10.228,29-33.13c6.543-15.276,9.754-35.393,9.754-60.428q0-37.173-9.633-60.05-9.7-22.872-28.746-33.435-19.078-10.494-48.379-10.51a192.154,192.154,0,0,0-32.164,2.861v203.42a301.919,301.919,0,0,0,31.027,1.509Q-3088.3,1277.923-3069.078,1267.685Z" transform="translate(3198.258 -1028.924)" fill="#fff"/>
      <path id="Path_14" data-name="Path 14" d="M-3137.5,1271.729h131.582v41.183h-180.039V1029.455h178.129v41.185H-3137.5v76.6h110.715v41.184H-3137.5Z" transform="translate(3494.385 -1025.793)" fill="#fff"/>
      <path id="Path_15" data-name="Path 15" d="M-3135.012,1317.182a181.629,181.629,0,0,1-33.984-8.424v-41.163a228.946,228.946,0,0,0,34.867,8.527,218.431,218.431,0,0,0,34.836,2.987q55.166,0,55.16-39.656c0-7.3-1.4-13.421-4.211-18.414q-4.219-7.446-13.668-13.015-9.492-5.572-26.566-10.535l-18.191-5.344q-33.516-9.785-50.918-29.319-17.455-19.566-17.453-50.369,0-26.036,11.988-44.623,11.965-18.546,35.719-28.543,23.707-9.971,58.6-9.981a257.313,257.313,0,0,1,32.379,2.028,167.07,167.07,0,0,1,28.141,5.845v41.186q-25.846-8.048-57.086-8.076-31.6,0-45.953,10.183-14.373,10.162-14.367,28.925c0,7.02,1.25,12.914,3.73,17.605,2.516,4.743,6.652,8.854,12.469,12.341q8.7,5.306,24.2,9.882l18,5.37q36.621,10.532,54.512,29.972,17.912,19.453,17.91,51.045,0,26.225-12.238,45.3-12.311,19.08-35.648,29.1-23.361,10.087-56.137,10.059A232.631,232.631,0,0,1-3135.012,1317.182Z" transform="translate(3755.058 -1029.31)" fill="#fff"/>
      <path id="Path_16" data-name="Path 16" d="M-3164.02,1312.912V1029.455h49.035v283.457Z" transform="translate(4022.783 -1025.793)" fill="#fff"/>
      <path id="Path_17" data-name="Path 17" d="M-2948.336,1178.551v135.2a373.844,373.844,0,0,1-62.988,5.566q-73.957,0-110.543-34.764-36.562-34.8-36.562-109.463-.234-74.5,36.664-110.139,36.879-35.626,106.785-35.64a238.756,238.756,0,0,1,60.145,7.474v41.387a229.381,229.381,0,0,0-55.934-7.276q-32.924,0-54,10.133-21.07,10.2-31.809,33.135-10.717,23.03-10.711,61.5,0,36.757,10.238,59.369,10.271,22.581,30.379,32.836,20.086,10.271,51.141,10.233c6.594,0,13.746-.3,21.449-.952v-98.6Z" transform="translate(4157.413 -1029.31)" fill="#fff"/>
      <path id="Path_18" data-name="Path 18" d="M-2972.09,1029.455h46.18v283.457h-49.617l-124.512-205.478v205.478h-46.148V1029.455h49.609l124.488,205.5Z" transform="translate(4452.255 -1025.793)" fill="#fff"/>
    </g>
    <g id="Group_6" data-name="Group 6" transform="translate(-3223.167 1025.09)">
      <path id="Path_19" data-name="Path 19" d="M-3082.125,1029.679c-77.758,0-141.043,63.285-141.043,141.093v256.194h42.824V1271.907a140.3,140.3,0,0,0,98.219,39.981c77.809,0,141.09-63.312,141.09-141.117S-3004.316,1029.679-3082.125,1029.679Zm0,239.317a98.345,98.345,0,0,1-98.219-98.225,98.323,98.323,0,0,1,98.219-98.2,98.336,98.336,0,0,1,98.277,98.2A98.357,98.357,0,0,1-3082.125,1269Z" transform="translate(3223.168 -914.574)" fill="#fff"/>
      <path id="Path_20" data-name="Path 20" d="M-3167.441,1302.707h-42.766V1025.09h42.82v234.75a97.135,97.135,0,0,0,69.344-28.792,97.224,97.224,0,0,0,28.8-68.929V1140.2h42.84v21.924a139.693,139.693,0,0,1-41.312,99.253,143.538,143.538,0,0,1-24.953,19.915,142.133,142.133,0,0,1,24.953,19.863A140.01,140.01,0,0,1-3026.4,1400.4v22h-42.84v-22a97.065,97.065,0,0,0-28.8-68.876A97.126,97.126,0,0,0-3167.441,1302.707Z" transform="translate(3535.207 -1025.09)" fill="#fff"/>
      <rect id="Rectangle_1469" data-name="Rectangle 1469" width="42.842" height="42.892" transform="translate(324.938 354.415)" fill="#fff"/>
    </g>
  </g>
</svg>
